<svg xmlns="http://www.w3.org/2000/svg" viewBox="0 0 1660 1659"><title>logo</title><g id="katman_2" data-name="katman 2"><g id="katman_1-2" data-name="katman 1"><path d="M744,1c0,.6-6.2,1-16.5,1C711.7,2,711,2.1,711,4s-.7,2-14.5,2S682,6.1,682,8s-.7,2-10.5,2-10.5.1-10.5,2-.7,2-10.1,2c-9.2,0-10.1.2-10.6,2s-1.5,2-8.2,2.2-7.7.5-8.6,2.5-1.6,2.3-8.7,2.3H607v6.1c0,5.2.3,6.2,2,6.6s2,1.4,2,6.4V48h12.6c11.7,0,12.6-.1,13.1-2s1.4-2,8.4-2c7.2,0,7.9-.2,7.9-2s.7-2,10.5-2,10.5-.1,10.5-2,.7-2,10.1-2c9.2,0,10.1-.2,10.6-2s1.5-2,14.7-2.2c13.8-.3,14.1-.4,14.4-2.6s.5-2.2,16.7-2.2c15.4,0,16.3-.1,16.8-2s1.4-2,73.1-2c71.9,0,72.6,0,72.6,2s.7,2,16.4,2c16.3,0,16.5,0,16.8,2.2s.6,2.3,14.4,2.6c13.2.2,14.2.4,14.7,2.2s1.4,2,10.5,2,10,.2,10.5,2,1.4,2,10.6,2c9.4,0,10.1.1,10.1,2s.7,2,8.5,2,8.5.2,8.5,2,.7,2,8,2,8,.2,8,2,.7,2,6.4,2c5.9,0,6.5.2,6.8,2.2s.9,2.3,7.8,2.6c5.2.2,7.7.7,8.3,1.7s2.6,1.5,6.7,1.5c5.7,0,6,.1,6,2.5s.3,2.5,5.9,2.5c5.1,0,6.1.3,6.6,2s1.5,2,6.6,2,5.9.2,5.9,2,.7,2,4,2,4,.3,4,2,.7,2,6.4,2c5.9,0,6.5.2,6.8,2.2.2,1.8,1,2.4,3.9,2.6,2.7.2,3.8.9,4.2,2.3.4,1.6,1.4,1.9,6.6,1.9,5.4,0,6.1.2,6.1,2s.7,2,4,2,4,.3,4,2,.7,2,3.9,2c3,0,4,.4,4.4,2s1.4,2,4.6,2c3.4,0,4.1.3,4.1,2s.7,2,3.9,2,4,.4,4.3,2.2,1,2.4,3.9,2.6c2.7.2,3.8.9,4.2,2.3s1.4,1.9,4.6,1.9c3.4,0,4.1.3,4.1,2s.7,2,4,2,4,.3,4,2,.7,2,3.9,2c3,0,4,.4,4.4,2s1.4,2,4.6,2c3.4,0,4.1.3,4.1,2a1.77,1.77,0,0,0,1.9,2,2.24,2.24,0,0,1,2.3,2.2c.2,1.8,1,2.4,3.9,2.6,2.7.2,3.8.9,4.2,2.3s1.4,1.9,4.6,1.9c3.4,0,4.1.3,4.1,2a1.8,1.8,0,0,0,2,2,1.8,1.8,0,0,1,2,2c0,1.7.7,2,4,2s4,.3,4,2,.7,2,3.9,2c3,0,4,.4,4.4,2a2.65,2.65,0,0,0,2.5,2,2.26,2.26,0,0,1,2.4,2.2c.2,1.9,1,2.4,4.1,2.6,2.5.2,3.7.8,3.7,1.9,0,.8.9,1.7,2,2a2.75,2.75,0,0,1,2,2.4c0,1.5.7,1.9,3.9,1.9,3,0,4,.4,4.4,2a2.67,2.67,0,0,0,2.6,2c1.4,0,2.1.6,2.1,2a1.8,1.8,0,0,0,2,2,1.8,1.8,0,0,1,2,2c0,1.7.7,2,4,2s4,.3,4,2.1a2.67,2.67,0,0,0,2,2.6c1.1.3,2,1.2,2,2s.9,1.7,1.9,2a3.61,3.61,0,0,1,2.4,2.4c.4,1.5,1.4,1.9,4.6,1.9,3.4,0,4.1.3,4.1,2a1.8,1.8,0,0,0,2,2,1.8,1.8,0,0,1,2,2,1.8,1.8,0,0,0,2,2,1.8,1.8,0,0,1,2,2c0,1.7.7,2,3.9,2s4,.4,4.4,2.1a4.2,4.2,0,0,0,2.6,2.6,2.73,2.73,0,0,1,2.1,2.4,1.77,1.77,0,0,0,2,1.9,1.8,1.8,0,0,1,2,2,1.8,1.8,0,0,0,2,2,1.8,1.8,0,0,1,2,2,1.8,1.8,0,0,0,2,2,1.8,1.8,0,0,1,2,2,1.8,1.8,0,0,0,2,2,1.8,1.8,0,0,1,2,2c0,1.7.7,2,4.5,2s4.5.3,4.5,2.1a2.67,2.67,0,0,0,2,2.6c1.1.3,2,1.2,2,2s.9,1.7,2,2a2.75,2.75,0,0,1,2,2.4,1.77,1.77,0,0,0,2,1.9,1.8,1.8,0,0,1,2,2,1.8,1.8,0,0,0,2,2c1.2,0,2,.7,2,1.6a2.54,2.54,0,0,0,1.9,2.1,3.61,3.61,0,0,1,2.4,2.4,2.7,2.7,0,0,0,2.6,1.9c1.5,0,2.1.6,2.1,2.1a2.67,2.67,0,0,0,2,2.6c1.1.3,2,1.2,2,2s.9,1.7,2,2a2.75,2.75,0,0,1,2,2.4,1.77,1.77,0,0,0,2,1.9,1.8,1.8,0,0,1,2,2,1.8,1.8,0,0,0,2,2c1.2,0,2,.7,2,1.6a2.54,2.54,0,0,0,1.9,2.1,3.61,3.61,0,0,1,2.4,2.4,2.7,2.7,0,0,0,2.6,1.9c1.5,0,2.1.6,2.1,2.1a2.67,2.67,0,0,0,2,2.6c1.1.3,2,1.2,2,2s.9,1.7,2,2a2.75,2.75,0,0,1,2,2.4,1.77,1.77,0,0,0,2,1.9c1.7,0,2,.7,2,4s.3,4,2,4a1.8,1.8,0,0,1,2,2,1.77,1.77,0,0,0,1.9,2,2.73,2.73,0,0,1,2.4,2.1,4.2,4.2,0,0,0,2.6,2.6,2.73,2.73,0,0,1,2.1,2.4,1.77,1.77,0,0,0,2,1.9,1.8,1.8,0,0,1,2,2,1.8,1.8,0,0,0,2,2,1.8,1.8,0,0,1,2,2,1.8,1.8,0,0,0,2,2c1.7,0,2,.7,2,4s.3,4,2,4c1.3,0,2,.7,2,1.8a3.87,3.87,0,0,0,2.5,3c1.4.6,2.5,1.8,2.5,2.7s.9,1.5,2,1.5c1.7,0,2,.7,2,4s.3,4,2,4a1.8,1.8,0,0,1,2,2,1.8,1.8,0,0,0,2,2,1.8,1.8,0,0,1,2,2,1.8,1.8,0,0,0,2,2c1.7,0,2,.7,2,4.1,0,3.2.4,4.2,2,4.6,1.1.3,2,1.2,2,1.9s1.1,1.9,2.5,2.4,2.5,1.6,2.5,2.5.9,1.5,2,1.5c1.7,0,2,.7,2,4s.3,4,2,4c1.4,0,2,.7,2,2.1a2.67,2.67,0,0,0,2,2.6c1.6.4,2,1.4,2,4.4,0,3.2.3,3.9,2,3.9a1.8,1.8,0,0,1,2,2,1.8,1.8,0,0,0,2,2c1.6,0,2,.7,2,3.6,0,2.7.5,3.7,1.9,4.1s2.1,1.7,2.6,4.9c.5,3.5,1,4.4,2.6,4.4a1.77,1.77,0,0,1,1.9,2,1.8,1.8,0,0,0,2,2c1.7,0,2,.7,2,4s.3,4,2,4,2,.7,2,4.1c0,3.2.4,4.2,1.9,4.6a3.61,3.61,0,0,1,2.4,2.4c.3,1,1.2,1.9,2,1.9,1.1,0,1.7,1.2,1.9,3.7.2,3.1.7,3.9,2.6,4.1s2.2,1,2.2,4.3.3,3.9,2,3.9,2,.7,2,4.5.3,4.5,2,4.5,2,.7,2,4,.3,4,2,4,2,.7,2,4,.3,4,2,4,2,.7,2,4.1c0,3.2.4,4.2,1.9,4.6s2.1,1.5,2.3,4.2c.2,2.9.8,3.7,2.6,3.9s2.2,1,2.2,4.3.3,3.9,2,3.9,2,.7,2,4.5.3,4.5,2,4.5,2,.7,2,6,.2,6,2,6,2,.7,2,4.1c0,3.2.4,4.2,2,4.6s2,1.4,2,6,.3,5.6,1.9,6c1.4.4,2.1,1.5,2.3,4.2.2,2.9.8,3.7,2.6,3.9,2,.3,2.2.9,2.2,6.8,0,5.7.2,6.4,2,6.4s2,.7,2,6,.2,6,2,6,2,.7,2,6.5.2,6.5,2,6.5,2,.7,2,8.1c0,7.2.2,8.1,2,8.6s2,1.4,2,6,.3,5.6,2,6,2,1.5,2.2,8.7c.3,7.5.5,8.1,2.6,8.4s2.2.8,2.2,8.3c0,7.2.2,7.9,2,7.9s2,.7,2,10.5.1,10.5,2,10.5,2,.7,2,10.5.1,10.5,2,10.5,2,.7,2,14.5.1,14.5,2,14.5,2,.7,2,18.6c0,17.7.1,18.6,2,19.1s2,1.4,2,70.9c0,69.7,0,70.4-2,70.4s-2,.7-2,18.4c0,17.5-.1,18.4-2,18.9s-2,1.4-2,12.5-.1,12-2,12.5-2,1.4-2,10.6c0,9.4-.1,10.1-2,10.1s-2,.7-2,10.5-.1,10.5-2,10.5-2,.7-2,8.4c0,8-.1,8.5-2.2,8.8s-2.3.9-2.6,7.9c-.2,6.7-.5,7.8-2.2,8.2s-2,1.4-2,6.6c0,5.4-.2,6.1-2,6.1s-2,.7-2,7.9c0,7-.2,7.9-2,8.4s-2,1.4-2,6.6c0,5.4-.2,6.1-2,6.1s-2,.7-2,5.9c0,5-.3,5.9-2,6.4s-2,1.4-2,6.5c0,5.5-.2,6.1-2.2,6.4-1.8.2-2.4,1-2.6,3.9-.2,2.7-.9,3.8-2.3,4.2-1.6.4-1.9,1.4-1.9,6.6,0,5.4-.2,6.1-2,6.1s-2,.7-2,4-.3,4-2,4-2,.7-2,6.5-.2,6.5-2,6.5-2,.7-2,5-.3,5-2,5c-1.5,0-2,.7-2,2.9s-.5,3-2.2,3.3c-1.9.2-2.4,1-2.6,4.5s-.7,4.3-2.3,4.3-1.9.7-1.9,4-.3,4-2,4-2,.7-2,3.9c0,3-.4,4-2,4.4s-2,1.4-2,4.6c0,3.4-.3,4.1-2,4.1s-2,.7-2,4-.3,4-2,4-2,.7-2,3.9-.4,4-2.2,4.3-2.4,1-2.6,4.5-.7,4.3-2.3,4.3a1.77,1.77,0,0,0-1.9,2,1.8,1.8,0,0,1-2,2c-1.7,0-2,.7-2,4s-.3,4-2,4-2,.7-2,3.9c0,3-.4,4-2,4.4a2.67,2.67,0,0,0-2,2.6c0,1.4-.6,2.1-2,2.1s-2.1.9-2.6,3.9c-.4,2.7-1.2,4.1-2.5,4.4s-1.9,1.4-1.9,4.1-.4,3.6-1.6,3.6a2.54,2.54,0,0,0-2.1,1.9,3.61,3.61,0,0,1-2.4,2.4c-1.5.4-1.9,1.4-1.9,4.6,0,3.4-.3,4.1-2,4.1a1.8,1.8,0,0,0-2,2,1.8,1.8,0,0,1-2,2c-1.7,0-2,.7-2,4s-.3,4-2,4c-1.1,0-2,.7-2,1.5s-1.1,2.1-2.5,2.7a3.87,3.87,0,0,0-2.5,3c0,1.1-.7,1.8-2,1.8-1.7,0-2,.7-2,4s-.3,4-2,4a1.8,1.8,0,0,0-2,2,1.8,1.8,0,0,1-2,2,1.8,1.8,0,0,0-2,2,1.8,1.8,0,0,1-2,2c-1.7,0-2,.7-2,4.5s-.3,4.5-1.9,4.5a2.89,2.89,0,0,0-2.6,2,2.64,2.64,0,0,1-2.2,2c-.8,0-1.7.9-2,2a2.75,2.75,0,0,1-2.4,2c-1.5,0-1.9.7-1.9,4,0,3-.4,4-1.6,4a2.54,2.54,0,0,0-2.1,1.9,3.61,3.61,0,0,1-2.4,2.4,2.7,2.7,0,0,0-1.9,2.6c0,1.4-.6,2.1-2,2.1a1.8,1.8,0,0,0-2,2,1.77,1.77,0,0,1-1.9,2,2.89,2.89,0,0,0-2.6,2,2.64,2.64,0,0,1-2.2,2c-.8,0-1.7.9-2,1.9a3.61,3.61,0,0,1-2.4,2.4c-1.4.4-1.9,1.4-1.9,4s-.5,3.6-2,4a2.67,2.67,0,0,0-2,2.6c0,1.4-.6,2.1-2,2.1a1.8,1.8,0,0,0-2,2,1.8,1.8,0,0,1-2,2,1.8,1.8,0,0,0-2,2,1.77,1.77,0,0,1-1.9,2,2.89,2.89,0,0,0-2.6,2,2.64,2.64,0,0,1-2.2,2c-.8,0-1.7.9-2,2s-1.2,2-2,2-1.7.9-2,1.9a3.61,3.61,0,0,1-2.4,2.4,2.7,2.7,0,0,0-1.9,2.6c0,1.4-.6,2.1-2,2.1a1.8,1.8,0,0,0-2,2,1.8,1.8,0,0,1-2,2,1.8,1.8,0,0,0-2,2,1.77,1.77,0,0,1-1.9,2,2.89,2.89,0,0,0-2.6,2,2.64,2.64,0,0,1-2.2,2c-.8,0-1.7.9-2,2s-1.2,2-2,2-1.7.9-2,1.9a3.61,3.61,0,0,1-2.4,2.4,2.7,2.7,0,0,0-1.9,2.6c0,1.4-.6,2.1-2,2.1a1.8,1.8,0,0,0-2,2,1.8,1.8,0,0,1-2,2,1.8,1.8,0,0,0-2,2c0,1.7-.7,2-4.1,2-3.2,0-4.2.4-4.6,2-.3,1.1-1.2,2-2,2s-1.7.9-2,2-1.2,2-2,2-1.7.9-2,1.9a3.61,3.61,0,0,1-2.4,2.4,2.7,2.7,0,0,0-1.9,2.6c0,1.4-.6,2.1-2,2.1a1.8,1.8,0,0,0-2,2c0,1.4-.7,2-2.1,2a2.67,2.67,0,0,0-2.6,2c-.4,1.6-1.4,2-4.4,2-3.2,0-3.9.3-3.9,2a1.8,1.8,0,0,1-2,2,1.77,1.77,0,0,0-2,1.9,2.75,2.75,0,0,1-2,2.4c-1.1.3-2,1.2-2,2,0,1.1-1.2,1.7-3.7,1.9-2.8.2-4.1.9-4.8,2.5a3.55,3.55,0,0,1-2.7,2.3,1.79,1.79,0,0,0-1.8,2,1.8,1.8,0,0,1-2,2,1.8,1.8,0,0,0-2,2c0,1.7-.7,2-4,2s-4,.3-4,2a1.8,1.8,0,0,1-2,2,1.8,1.8,0,0,0-2,2c0,1.4-.7,2-2.1,2a2.7,2.7,0,0,0-2.6,1.9c-.4,1.4-1.5,2.1-4.2,2.3-2.9.2-3.7.8-3.9,2.5-.2,1.5-1,2.3-2.3,2.3a1.77,1.77,0,0,0-1.9,2c0,1.7-.7,2-4,2s-4,.3-4,2c0,1.4-.7,2-2.1,2a2.67,2.67,0,0,0-2.6,2c-.4,1.6-1.4,2-4.4,2-3.2,0-3.9.3-3.9,2s-.7,2-4,2-4,.4-4,1.9a2.75,2.75,0,0,1-2,2.4c-1.4.3-2,1.4-2,3.1,0,2.4-.3,2.6-4.5,2.6-3.3,0-4.5.4-4.5,1.5s-1.1,1.5-4,1.5c-3.3,0-4,.3-4,2a1.8,1.8,0,0,1-2,2,1.8,1.8,0,0,0-2,2c0,1.7-.7,2-4.1,2-3.2,0-4.2.4-4.6,2s-1.4,2-4,2-3.6.5-4,1.9-1.5,2.1-4.2,2.3c-2.9.2-3.7.8-3.9,2.5-.3,2-1,2.3-4.4,2.3-3.1,0-4.1.4-4.5,2s-1.4,2-4.4,2c-3.2,0-3.9.3-3.9,2s-.7,2-4,2-4,.3-4,2-.7,2-4.1,2c-3.2,0-4.2.4-4.6,2s-1.4,2-4,2-3.6.5-4,1.9-1.5,2.1-4.2,2.3c-2.9.2-3.7.8-3.9,2.5-.3,2.1-.9,2.3-6.8,2.3-5.7,0-6.4.2-6.4,2s-.7,2-4,2-4,.3-4,2-.7,2-6.1,2c-5.2,0-6.2.3-6.6,2s-1.4,2-4.4,2c-3.2,0-3.9.3-3.9,2s-.7,2-5.9,2c-5,0-6.1.3-6.6,2-.5,1.5-1.7,2-6.3,2.2-5,.3-5.7.6-6,2.5-.3,2.1-.9,2.3-6.4,2.3-5.1,0-6.1.3-6.5,2s-1.4,2-8.4,2c-7.2,0-7.9.2-7.9,2s-.7,2-6.1,2c-5.2,0-6.2.3-6.6,2s-1.4,2-8.4,2c-7.2,0-7.9.2-7.9,2s-.7,2-8.1,2c-7.2,0-8.1.2-8.6,2s-1.5,2-10.7,2.2c-9.6.3-10.1.4-10.4,2.5s-.7,2.3-10.8,2.3c-9.7,0-10.4.1-10.4,2s-.7,2-14.5,2-14.5.1-14.5,2-.7,2-16.5,2-16.5.1-16.5,2-.7,2-72.6,2c-71.7,0-72.6,0-73.1-2s-1.4-2-16.9-2c-15.7,0-16.4-.1-16.4-2s-.7-2-14.5-2-14.5-.1-14.5-2-.7-2-10.4-2c-10.1,0-10.5-.1-10.8-2.3s-.8-2.2-10.5-2.5c-9.5-.2-10.3-.4-10.3-2.2s-.7-2-7.9-2c-7,0-7.9-.2-8.4-2s-1.4-2-8.6-2c-7.4,0-8.1-.2-8.1-2s-.7-2-6.5-2-6.5-.2-6.5-2-.7-2-8-2-8-.2-8-2-.7-2-6.4-2c-5.9,0-6.5-.2-6.8-2.3-.3-1.9-1-2.2-5.9-2.5-4.7-.2-5.8-.6-6.2-2.2s-1.4-2-6.6-2c-5.4,0-6.1-.2-6.1-2s-.7-2-4-2-4-.3-4-2-.7-2-6.5-2-6.5-.2-6.5-2-.7-2-4-2-4-.3-4-2-.7-2-5.8-2-5.9-.3-6.7-2.3c-.7-1.6-2-2.3-4.6-2.5s-3.8-.9-4.2-2.3-1.4-1.9-4-1.9-3.6-.5-4-2-1.4-2-4-2-3.6-.5-4-2-1.4-2-4.6-2c-3.4,0-4.1-.3-4.1-2s-.7-2-4-2-4-.3-4-2-.7-2-3.8-2c-2.9,0-3.9-.5-4.7-2.3-.7-1.6-2-2.3-4.6-2.5s-3.8-.9-4.2-2.3-1.4-1.9-4-1.9-3.6-.5-4-2-1.4-2-4-2-3.6-.5-4-2a2.67,2.67,0,0,0-2.6-2c-1.4,0-2.1-.6-2.1-2,0-1.7-.7-2-4-2-2.9,0-4-.4-4-1.5s-1.1-1.5-4-1.5c-3.6,0-4-.3-4-2.4a3,3,0,0,0-1.9-3.1,4.2,4.2,0,0,1-2.6-2.6c-.5-1.4-1.5-1.9-4.6-1.9s-3.9-.3-3.9-2-.7-2-4-2-4-.3-4-2a1.77,1.77,0,0,0-1.9-2,2.75,2.75,0,0,1-2.4-2c-.4-1.6-1.4-2-4.6-2-3.4,0-4.1-.3-4.1-2a1.77,1.77,0,0,0-1.9-2c-1.3,0-2.1-.8-2.3-2.3-.2-1.8-1-2.3-4-2.5-2.6-.2-3.8-.8-3.8-1.9,0-.8-.9-1.7-2-2s-2-1.2-2-2-.9-1.7-1.9-2a3.61,3.61,0,0,1-2.4-2.4c-.4-1.5-1.4-1.9-4.6-1.9-3.4,0-4.1-.3-4.1-2a1.8,1.8,0,0,0-2-2,1.8,1.8,0,0,1-2-2,1.77,1.77,0,0,0-1.9-2c-1.3,0-2.1-.8-2.3-2.3-.2-1.8-1-2.3-4-2.5-2.6-.2-3.9-.9-4.3-2.3a3.06,3.06,0,0,0-2.6-1.9,1.77,1.77,0,0,1-1.9-2,1.8,1.8,0,0,0-2-2,1.8,1.8,0,0,1-2-2c0-1.7-.7-2-4-2s-4-.3-4-2a1.8,1.8,0,0,0-2-2,1.8,1.8,0,0,1-2-2,1.77,1.77,0,0,0-1.9-2,2.73,2.73,0,0,1-2.4-2.1,4.2,4.2,0,0,0-2.6-2.6,2.73,2.73,0,0,1-2.1-2.4,1.77,1.77,0,0,0-2-1.9,1.8,1.8,0,0,1-2-2,1.8,1.8,0,0,0-2-2,1.8,1.8,0,0,1-2-2c0-1.7-.7-2-3.9-2-3,0-4-.4-4.4-2-.3-1.1-1.2-2-2-2s-1.7-.9-2-2a2.67,2.67,0,0,0-2.6-2c-1.5,0-2.1-.6-2.1-2.1a2.7,2.7,0,0,0-1.9-2.6,3.61,3.61,0,0,1-2.4-2.4,2.54,2.54,0,0,0-2.1-1.9c-.9,0-1.6-.8-1.6-2a1.8,1.8,0,0,0-2-2,1.8,1.8,0,0,1-2-2,1.77,1.77,0,0,0-1.9-2,2.75,2.75,0,0,1-2.4-2c-.3-1.1-1.2-2-2-2s-1.7-.9-2-2a2.67,2.67,0,0,0-2.6-2c-1.5,0-2.1-.6-2.1-2.1a2.7,2.7,0,0,0-1.9-2.6,3.61,3.61,0,0,1-2.4-2.4,2.54,2.54,0,0,0-2.1-1.9c-.9,0-1.6-.8-1.6-2a1.8,1.8,0,0,0-2-2,1.8,1.8,0,0,1-2-2,1.77,1.77,0,0,0-1.9-2,2.75,2.75,0,0,1-2.4-2c-.3-1.1-1.2-2-2-2s-1.7-.9-2-2a2.67,2.67,0,0,0-2.6-2c-1.5,0-2.1-.6-2.1-2.1a2.67,2.67,0,0,0-2-2.6c-1.6-.4-2-1.4-2-4.4,0-3.2-.3-3.9-2-3.9a1.8,1.8,0,0,1-2-2,1.8,1.8,0,0,0-2-2,1.8,1.8,0,0,1-2-2,1.8,1.8,0,0,0-2-2,1.8,1.8,0,0,1-2-2,1.77,1.77,0,0,0-1.9-2,2.73,2.73,0,0,1-2.4-2.1,4.2,4.2,0,0,0-2.6-2.6,2.73,2.73,0,0,1-2.1-2.4,1.77,1.77,0,0,0-2-1.9c-1.7,0-2-.7-2-4s-.3-4-2-4a1.8,1.8,0,0,1-2-2,1.8,1.8,0,0,0-2-2,1.8,1.8,0,0,1-2-2,1.8,1.8,0,0,0-2-2c-1.7,0-2-.7-2-4.1,0-3.2-.4-4.2-2-4.6a4.23,4.23,0,0,1-2.5-2.4,3.06,3.06,0,0,0-2.6-1.9,1.77,1.77,0,0,1-1.9-2,1.8,1.8,0,0,0-2-2c-1.7,0-2-.7-2-4s-.3-4-2-4c-1.4,0-2-.7-2-2.1a2.7,2.7,0,0,0-1.9-2.6,3.61,3.61,0,0,1-2.4-2.4,2.54,2.54,0,0,0-2.1-1.9c-1.2,0-1.6-1-1.6-3.6s-.5-3.7-2-4.1a4.23,4.23,0,0,1-2.5-2.4,3.06,3.06,0,0,0-2.6-1.9c-1.6,0-1.9-.7-1.9-4.1,0-3.2-.4-4.2-1.9-4.6a3.61,3.61,0,0,1-2.4-2.4,2.54,2.54,0,0,0-2.1-1.9c-1.2,0-1.6-1-1.6-4,0-3.3-.3-4-2-4s-2-.7-2-4-.3-4-2-4a1.77,1.77,0,0,1-2-1.9,2.89,2.89,0,0,0-2-2.6,2.88,2.88,0,0,1-2-3c0-3.6-1-5.5-3.1-5.5-1.5,0-1.9-.7-1.9-4s-.3-4-2-4a1.8,1.8,0,0,1-2-2,1.8,1.8,0,0,0-2-2c-1.7,0-2-.7-2-4.1,0-3.2-.4-4.2-2-4.6s-2-1.4-2-4.4c0-3.2-.3-3.9-2-3.9s-2-.7-2-4-.3-4-2-4c-1.5,0-2-.7-2-2.9,0-4.2-1-6.1-3.1-6.1-1.5,0-1.9-.7-1.9-4s-.3-4-2-4-2-.7-2-4-.3-4-2-4-2-.7-2-4.1c0-3.2-.4-4.2-2-4.6-1.4-.4-2-1.4-2-3.4,0-2.2-.5-2.9-2-2.9-1.7,0-2-.7-2-5s-.3-5-2-5-2-.7-2-4.9c0-6.2-.7-8.1-3.1-8.1-1.5,0-1.9-.7-1.9-4s-.3-4-2-4-2-.7-2-6.1c0-5.2-.3-6.2-2-6.6s-2-1.4-2-4.4c0-3.2-.3-3.9-2-3.9s-2-.7-2-6.1c0-5.2-.3-6.2-2-6.6s-2-1.4-2-6-.3-5.6-2-6-2-1.5-2.2-6.2-.7-5.8-2.5-6.6c-2.1-.9-2.3-1.6-2.3-8.7s-.2-7.8-2-7.8-2-.7-2-6.1c0-5.2-.3-6.2-2-6.6s-2-1.4-2-8.4c0-7.2-.2-7.9-2-7.9s-2-.7-2-8.5-.2-8.5-2-8.5-2-.7-2-10.1c0-9.2-.2-10.1-2-10.6s-2-1.4-2-9.3c0-10.2-.5-12-3.1-12-1.8,0-1.9-.9-1.9-14.5,0-13.8-.1-14.5-2-14.5s-2-.7-2-16.5S27.9,902,26,902s-2-.7-2-72.4c0-71.5,0-72.4,2-72.9s2-1.4,2-17.1c0-15.9.1-16.6,2-16.6s2-.7,2-14.5c0-13.6.1-14.5,1.9-14.5,2.6,0,3.1-1.8,3.1-12,0-7.9.2-8.8,2-9.3s2-1.4,2-10.6c0-9.4.1-10.1,2-10.1s2-.7,2-7.9c0-7,.2-7.9,2-8.4s2-1.4,2-8.6c0-7.4.2-8.1,2-8.1s2-.7,2-5.9c0-5,.3-5.9,2-6.4s2-1.4,2-8.6.2-8.1,1.9-8.1c2.4,0,3.1-1.9,3.1-8.1,0-4.2.3-4.9,2-4.9s2-.7,2-5.9c0-5,.3-5.9,2-6.4s2-1.4,2-6.6c0-5.4.2-6.1,2-6.1s2-.7,2-4,.3-4,2-4,2-.7,2-5.9c0-5,.3-5.9,2-6.4s2-1.4,2-4.6c0-3.4.3-4.1,1.9-4.1,2.3,0,3.1-1.9,3.1-7.5,0-3.4.4-4.4,2-4.8s2-1.4,2-4.6c0-3.4.3-4.1,2-4.1s2-.7,2-4,.3-4,2-4,2-.7,2-3.9c0-3,.4-4,2-4.4s2-1.4,2-4.6c0-3.4.3-4.1,2-4.1s2-.7,2-4,.4-4,1.9-4c2,0,3.1-1.9,3.1-5.5a2.64,2.64,0,0,1,2-2.8c1.6-.4,2-1.4,2-4.6,0-3.4.3-4.1,2-4.1s2-.7,2-4,.3-4,2-4,2-.7,2-3.9c0-3,.4-4,2-4.4,1.1-.3,2-1.2,2-2s.9-1.7,2-2c1.6-.4,2-1.4,2-4.6,0-3.4.3-4.1,1.9-4.1,2,0,3.1-1.9,3.1-5.5a2.64,2.64,0,0,1,2-2.8c1.1-.3,2-1.2,2-2s.9-1.7,2-2c1.6-.4,2-1.4,2-4.6,0-3.4.3-4.1,2-4.1s2-.7,2-4,.3-4,2-4,2-.7,2-4.5V385h-5.9c-5,0-5.9-.3-6.4-2s-1.4-2-8.7-2-8.2.2-8.7,1.9a3.61,3.61,0,0,1-2.4,2.4c-1.4.4-1.9,1.4-1.9,4s-.5,3.6-2,4-2,1.4-2,4.6c0,3.4-.3,4.1-2,4.1a1.8,1.8,0,0,0-2,2,1.8,1.8,0,0,1-2,2c-1.7,0-2,.7-2,4s-.3,4-2,4-2,.7-2,4.4c0,3.9-.3,4.5-2.2,4.8s-2.4,1-2.6,3.9c-.2,2.7-.9,3.8-2.3,4.2s-1.9,1.4-1.9,4-.5,3.6-2,4-2,1.4-2,4.6c0,3.4-.3,4.1-2,4.1s-2,.7-2,4-.3,4-2,4-2,.7-2,4-.3,4-2,4-2,.7-2,4.4c0,3.9-.3,4.5-2.2,4.8s-2.4,1-2.6,3.9c-.2,2.7-.9,3.8-2.3,4.2s-1.9,1.4-1.9,4-.5,3.6-2,4-2,1.4-2,4.6c0,3.4-.3,4.1-2,4.1s-2,.7-2,6-.2,6-2,6-2,.7-2,3.9c0,3-.4,4-2,4.4s-2,1.4-2,6.5c0,5.5-.2,6.1-2.2,6.4-1.8.2-2.4,1-2.6,3.9-.2,2.7-.9,3.8-2.3,4.2-1.6.4-1.9,1.4-1.9,6.6,0,5.4-.2,6.1-2,6.1s-2,.7-2,5.9c0,5-.3,5.9-2,6.4s-2,1.4-2,6.6c0,5.4-.2,6.1-2,6.1s-2,.7-2,7.9c0,7-.2,7.9-2,8.4s-2,1.4-2,6.5c0,5.5-.2,6.1-2.2,6.4s-2.3.9-2.6,8.5S22.7,623,21,623s-2,.7-2,7.9c0,7-.2,7.9-2,8.4s-2,1.4-2,10.6c0,9.4-.1,10.1-2,10.1s-2,.7-2,10.5S10.9,681,9,681s-2,.7-2,14.5S6.9,710,5,710s-2,.7-2,16.5c0,14-.2,16.5-1.5,16.5S0,753.2,0,828.5.2,914,1.5,914,3,916.6,3,931c0,16.3.1,17,2,17s2,.7,2,14.5S7.1,977,9,977s2,.7,2,10.5.1,10.5,2,10.5,2,.7,2,10.5.1,10.5,2,10.5,2,.7,2,8.1c0,7.2.2,8.1,2,8.6s2,1.5,2.2,8.2c.3,7,.5,7.6,2.6,7.9s2.2.9,2.2,6.8c0,5.7.2,6.4,2,6.4s2,.7,2,8.1c0,7.2.2,8.1,2,8.6s2,1.4,2,6.4c0,5.2.2,5.9,2,5.9s2,.7,2,6.1c0,5.2.3,6.2,2,6.6s2,1.4,2,6,.3,5.6,1.9,6c1.4.4,2.1,1.5,2.3,4.2.2,2.9.8,3.7,2.6,3.9,2,.3,2.2.9,2.2,6.8,0,5.7.2,6.4,2,6.4s2,.7,2,4,.3,4,2,4,2,.7,2,6.1c0,5.2.3,6.2,2,6.6s2,1.4,2,4.4c0,3.2.3,3.9,2,3.9s2,.7,2,4,.3,4,1.9,4,2,.8,2.3,4.2c.2,3.6.7,4.4,2.6,4.6s2.2,1,2.2,4.3.3,3.9,2,3.9,2,.7,2,4,.3,4,2,4,2,.7,2,4.1c0,3.2.4,4.2,2,4.6s2,1.4,2,4.4c0,3.2.3,3.9,2,3.9s2,.7,2,4,.3,4,1.9,4,2,.8,2.3,4.2c.2,3.6.7,4.4,2.6,4.6s2.2,1,2.2,4.3.3,3.9,2,3.9,2,.7,2,4,.3,4,2,4c1.4,0,2,.7,2,2.1a2.67,2.67,0,0,0,2,2.6c1.6.4,2,1.4,2,4.4,0,3.2.3,3.9,2,3.9s2,.7,2,4,.4,4,1.9,4a2.75,2.75,0,0,1,2.4,2,2.67,2.67,0,0,0,2.6,2c1.8,0,2.1.6,2.1,4.5s.3,4.5,2,4.5a1.8,1.8,0,0,1,2,2,1.8,1.8,0,0,0,2,2c1.7,0,2,.7,2,4s.3,4,2,4a1.8,1.8,0,0,1,2,2,1.8,1.8,0,0,0,2,2c1.7,0,2,.7,2,4.1,0,3.2.4,4.2,1.9,4.6a3.61,3.61,0,0,1,2.4,2.4,2.7,2.7,0,0,0,2.6,1.9c1.4,0,2.1.6,2.1,2a1.8,1.8,0,0,0,2,2c1.7,0,2,.7,2,4s.3,4,2,4c1.4,0,2,.7,2,2.1a2.7,2.7,0,0,0,1.9,2.6,3.61,3.61,0,0,1,2.4,2.4,2.54,2.54,0,0,0,2.1,1.9c1.2,0,1.6,1,1.6,3.6s.5,3.7,1.9,4.1a3.61,3.61,0,0,1,2.4,2.4,2.7,2.7,0,0,0,2.6,1.9c1.4,0,2.1.6,2.1,2a1.8,1.8,0,0,0,2,2c1.4,0,2,.7,2,2.1a2.67,2.67,0,0,0,2,2.6c1.6.4,2,1.4,2,4.4,0,3.2.3,3.9,2,3.9a1.8,1.8,0,0,1,2,2,1.8,1.8,0,0,0,2,2,1.8,1.8,0,0,1,2,2,1.77,1.77,0,0,0,1.9,2,2.75,2.75,0,0,1,2.4,2,2.67,2.67,0,0,0,2.6,2c1.5,0,2.1.6,2.1,2.1a2.67,2.67,0,0,0,2,2.6,2.75,2.75,0,0,1,2,2.4,1.77,1.77,0,0,0,2,1.9c1.7,0,2,.7,2,4s.3,4,2,4a1.8,1.8,0,0,1,2,2,1.8,1.8,0,0,0,2,2,1.8,1.8,0,0,1,2,2,1.77,1.77,0,0,0,1.9,2,2.73,2.73,0,0,1,2.4,2.1,4.2,4.2,0,0,0,2.6,2.6,2.73,2.73,0,0,1,2.1,2.4,1.77,1.77,0,0,0,2,1.9,1.8,1.8,0,0,1,2,2,1.8,1.8,0,0,0,2,2,1.8,1.8,0,0,1,2,2,1.8,1.8,0,0,0,2,2,1.8,1.8,0,0,1,2,2,1.8,1.8,0,0,0,2,2,1.8,1.8,0,0,1,2,2,1.77,1.77,0,0,0,1.9,2,2.73,2.73,0,0,1,2.4,2.1,4.2,4.2,0,0,0,2.6,2.6,2.73,2.73,0,0,1,2.1,2.4,1.77,1.77,0,0,0,2,1.9,1.8,1.8,0,0,1,2,2,1.8,1.8,0,0,0,2,2,1.8,1.8,0,0,1,2,2,1.8,1.8,0,0,0,2,2,1.8,1.8,0,0,1,2,2c0,1.7.7,2,3.9,2,3,0,4,.4,4.4,2a2.67,2.67,0,0,0,2.6,2c1.5,0,2.1.6,2.1,2.1a2.67,2.67,0,0,0,2,2.6c1.1.3,2,1.2,2,2s.9,1.7,2,2a2.75,2.75,0,0,1,2,2.4,1.77,1.77,0,0,0,2,1.9,1.8,1.8,0,0,1,2,2,1.8,1.8,0,0,0,2,2,1.8,1.8,0,0,1,2,2c0,1.7.7,2,4.5,2s4.5.3,4.5,2a1.8,1.8,0,0,0,2,2c1.4,0,2,.7,2,2.1a2.67,2.67,0,0,0,2,2.6c1.1.3,2,1.2,2,2s.9,1.7,1.9,2a3.61,3.61,0,0,1,2.4,2.4c.4,1.4,1.4,1.9,4,1.9s3.6.5,4,2a2.67,2.67,0,0,0,2.6,2c1.4,0,2.1.6,2.1,2a1.8,1.8,0,0,0,2,2,1.8,1.8,0,0,1,2,2c0,1.7.7,2,4,2s4,.3,4,2.1a2.67,2.67,0,0,0,2,2.6c1.1.3,2,1.2,2,2s.9,1.7,1.9,2a3.61,3.61,0,0,1,2.4,2.4c.4,1.5,1.4,1.9,4.6,1.9,3.4,0,4.1.3,4.1,2a1.8,1.8,0,0,0,2,2,1.8,1.8,0,0,1,2,2c0,1.7.7,2,4,2s4,.3,4,2a1.79,1.79,0,0,0,1.8,2,3.61,3.61,0,0,1,2.7,2.2c.7,1.7,2,2.4,4.8,2.6,2.5.2,3.7.8,3.7,1.9,0,.8.9,1.7,2,2a2.75,2.75,0,0,1,2,2.4c0,1.5.7,1.9,3.9,1.9,3,0,4,.4,4.4,2s1.4,2,4.6,2c3.4,0,4.1.3,4.1,2a1.8,1.8,0,0,0,2,2,1.8,1.8,0,0,1,2,2c0,1.7.7,2,3.9,2s4,.4,4.3,2.2,1,2.4,4,2.6c2.6.2,3.9.9,4.3,2.3s1.6,1.9,4.6,1.9c3.2,0,3.9.3,3.9,2s.7,2,4,2,4,.3,4,2,.7,2,3.9,2c3,0,4,.4,4.4,2s1.4,2,4.6,2c3.4,0,4.1.3,4.1,2s.7,2,3.9,2,4,.4,4.3,2.2,1,2.4,4,2.6c2.6.2,3.9.9,4.3,2.3s1.6,1.9,4.6,1.9c3.2,0,3.9.3,3.9,2s.7,2,4,2,4,.3,4,2,.7,2,3.9,2c3,0,4,.4,4.4,2s1.4,2,6.6,2c5.4,0,6.1.2,6.1,2s.7,2,4,2,4,.4,4,1.9c0,2.4,1.9,3.1,8,3.1,3.9,0,4.9.4,5.3,2s1.4,2,4,2,3.6.5,4,2c.4,1.7,1.4,2,6.6,2,5.4,0,6.1.2,6.1,2s.7,2,6,2,6,.2,6,2,.7,2,6.5,2,6.5.2,6.5,2,.7,2,8,2,8,.2,8,1.9c0,2.4,1.9,3.1,8,3.1,3.9,0,4.9.4,5.3,2,.5,1.8,1.4,2,8,2s7.6.2,8.2,2,1.5,2,8.6,2,7.9.2,7.9,2,.7,2,10.5,2c6.3,0,10.5.4,10.5,1s4.2,1,10.5,1H682v6h14.4c14.2,0,14.5,0,14.8,2.3s.6,2.2,16.6,2.5c9.7.1,16.2.6,16.2,1.2s30.8,1,86,1,86-.3,86-1,6.5-1.1,16.3-1.2c15.9-.3,16.2-.3,16.5-2.5s.6-2.3,14.8-2.3H978v-6h10.5c6.3,0,10.5-.4,10.5-1s4.2-1,10.5-1c9.8,0,10.5-.1,10.5-2s.7-2,8.1-2c7.2,0,8.1-.2,8.6-2s1.4-2,8.4-2c7.2,0,7.9-.2,7.9-2,0-1.6.8-1.9,6.3-2.2s6.2-.5,6.5-2.5c.3-2.2.8-2.3,8.4-2.3,7.1,0,8-.2,8.5-2s1.4-2,6.4-2c5.2,0,5.9-.2,5.9-2s.7-2,6.1-2c5.2,0,6.2-.3,6.6-2s1.4-2,6.4-2c5.2,0,5.9-.2,5.9-2s.7-2,4-2,4-.3,4-2,.8-1.9,6.3-2.2,6.2-.5,6.5-2.6c.3-1.8,1-2.2,4.3-2.2s3.9-.3,3.9-2,.7-2,6.5-2,6.5-.2,6.5-2,.7-2,4-2,4-.3,4-2,.7-2,4-2,4-.3,4-2,.7-2,4.1-2c3.2,0,4.2-.4,4.6-1.9s1.5-2.1,4.2-2.3c2.9-.2,3.7-.8,3.9-2.6s1-2.2,4.2-2.2c2.9,0,3.9-.4,4.3-2s1.4-2,4.6-2c3.4,0,4.1-.3,4.1-2s.7-2,4-2,4-.3,4-2,.7-2,3.9-2c3,0,4-.4,4.4-2s1.4-2,4.2-2,3.8-.5,4.2-1.9,1.5-2.1,4.2-2.3c2.9-.2,3.7-.8,3.9-2.6s1-2.2,4.2-2.2c2.9,0,4-.5,4.5-1.9a4.23,4.23,0,0,1,2.5-2.4,2.53,2.53,0,0,0,2-2.1c0-1.2,1-1.6,4-1.6,3.3,0,4-.3,4-2s.7-2,4-2,4-.3,4-2a1.77,1.77,0,0,1,1.9-2,3.06,3.06,0,0,0,2.6-1.9c.4-1.4,1.7-2.1,4.3-2.3,3-.2,3.8-.7,4-2.6a2.24,2.24,0,0,1,2.3-2.2,1.77,1.77,0,0,0,1.9-2c0-1.7.7-2,4-2s4-.3,4-2a1.77,1.77,0,0,1,1.9-2,2.89,2.89,0,0,0,2.6-2c.5-1.5,1.5-2,4.2-2s3.6-.5,4-1.9a3.61,3.61,0,0,1,2.4-2.4c1-.3,1.9-1.2,1.9-2s.9-1.7,2-2a2.67,2.67,0,0,0,2-2.6c0-1.8.6-2.1,4.1-2.1,3.2,0,4.2-.4,4.6-1.9a3.61,3.61,0,0,1,2.4-2.4,2.54,2.54,0,0,0,1.9-2.1c0-.9.8-1.6,2-1.6a1.8,1.8,0,0,0,2-2c0-1.7.7-2,4-2s4-.3,4-2a1.8,1.8,0,0,1,2-2,1.77,1.77,0,0,0,2-1.9,2.73,2.73,0,0,1,2.1-2.4,4.2,4.2,0,0,0,2.6-2.6,2.73,2.73,0,0,1,2.4-2.1,1.77,1.77,0,0,0,1.9-2c0-1.7.7-2,4-2s4-.3,4-2a1.8,1.8,0,0,1,2-2,1.8,1.8,0,0,0,2-2,1.8,1.8,0,0,1,2-2,1.8,1.8,0,0,0,2-2c0-1.4.7-2,2.1-2a2.67,2.67,0,0,0,2.6-2,4.23,4.23,0,0,1,2.4-2.5,3.06,3.06,0,0,0,1.9-2.6,1.77,1.77,0,0,1,2-1.9,1.8,1.8,0,0,0,2-2c0-1.7.7-2,4-2s4-.3,4-2a1.8,1.8,0,0,1,2-2,1.8,1.8,0,0,0,2-2c0-1.4.7-2,2.1-2a2.67,2.67,0,0,0,2.6-2c.3-1.1,1.2-2,2-2s1.7-.9,2-1.9a3.61,3.61,0,0,1,2.4-2.4,2.7,2.7,0,0,0,1.9-2.6c0-1.4.6-2.1,2-2.1a1.8,1.8,0,0,0,2-2,1.8,1.8,0,0,1,2-2,1.8,1.8,0,0,0,2-2,1.8,1.8,0,0,1,2-2,1.8,1.8,0,0,0,2-2c0-1.4.7-2,2.1-2a2.67,2.67,0,0,0,2.6-2c.3-1.1,1.2-2,2-2s1.7-.9,2-1.9a3.61,3.61,0,0,1,2.4-2.4,2.7,2.7,0,0,0,1.9-2.6c0-1.4.6-2.1,2-2.1a1.8,1.8,0,0,0,2-2,1.8,1.8,0,0,1,2-2,1.8,1.8,0,0,0,2-2,1.8,1.8,0,0,1,2-2c1.7,0,2-.7,2-4s.3-4,2.1-4a2.67,2.67,0,0,0,2.6-2,4.23,4.23,0,0,1,2.4-2.5,3.06,3.06,0,0,0,1.9-2.6,1.77,1.77,0,0,1,2-1.9,1.8,1.8,0,0,0,2-2,1.8,1.8,0,0,1,2-2,1.8,1.8,0,0,0,2-2,1.8,1.8,0,0,1,2-2,1.8,1.8,0,0,0,2-2,1.8,1.8,0,0,1,2-2c1.7,0,2-.7,2-3.9s.4-4,2.5-4.5c1.6-.4,2.5-1.3,2.5-2.6a1.8,1.8,0,0,1,2-2,1.8,1.8,0,0,0,2-2,1.8,1.8,0,0,1,2-2,1.8,1.8,0,0,0,2-2,1.8,1.8,0,0,1,2-2c1.7,0,2-.7,2-4s.3-4,2-4a1.8,1.8,0,0,0,2-2c0-1.2.7-2,1.6-2a2.53,2.53,0,0,0,2.1-2.1,5.31,5.31,0,0,1,2.9-3c1.9-.7,2.4-1.6,2.4-4.4s.4-3.5,2-3.5a1.8,1.8,0,0,0,2-2,1.8,1.8,0,0,1,2-2,1.77,1.77,0,0,0,2-1.9,2.75,2.75,0,0,1,2-2.4c1.6-.4,2-1.4,2-4.6,0-3.4.3-4.1,2-4.1a1.8,1.8,0,0,0,2-2,1.77,1.77,0,0,1,1.9-2c2.1,0,3.1-1.9,3.1-5.6,0-1.5.6-2.4,1.6-2.4a2.54,2.54,0,0,0,2.1-1.9,3.61,3.61,0,0,1,2.4-2.4c1.5-.4,1.9-1.4,1.9-4.6,0-3.4.3-4.1,2-4.1a1.8,1.8,0,0,0,2-2,1.8,1.8,0,0,1,2-2c1.7,0,2-.7,2-4s.3-4,2-4,2-.7,2-4c0-2.9.4-4,1.5-4,.9,0,2.1-1.1,2.7-2.5a3.87,3.87,0,0,1,3-2.5c1.4,0,1.8-.8,1.8-4s.3-4,2-4,2-.7,2-3.9c0-3,.4-4,2-4.4s2-1.4,2-4.6c0-3.4.3-4.1,2-4.1s2-.7,2-4,.3-4,2-4,2-.7,2-4,.4-4,1.9-4c2.1,0,3.1-1.9,3.1-6.1,0-2.2.5-2.9,2-2.9,1.7,0,2-.7,2-4s.3-4,2-4,2-.7,2-3.9c0-3,.4-4,2-4.4s2-1.4,2-4.6c0-3.4.3-4.1,2-4.1s2-.7,2-4,.3-4,2-4,2-.7,2-4,.4-4,1.9-4c2.4,0,3.1-1.9,3.1-8,0-3.9.4-4.9,2-5.3s2-1.4,2-4,.5-3.6,2-4c1.7-.4,2-1.4,2-6.6,0-5.4.2-6.1,2-6.1s2-.7,2-4,.3-4,2-4,2-.7,2-5.9c0-5,.3-5.9,2-6.4s2-1.4,2-6.5c0-5.5.2-6.1,2.3-6.4,1.9-.3,2.2-1,2.5-6,.2-4.6.7-5.8,2.2-6.3,1.8-.6,2-1.6,2-8.5s.2-7.8,2-8.3,2-1.4,2-6.6c0-5.4.2-6.1,2-6.1s2-.7,2-7.9c0-7,.2-7.9,2-8.4s2-1.4,2-8.6c0-7.4.2-8.1,2-8.1s2-.7,2-10.4c0-10.1.1-10.5,2.3-10.8s2.2-.8,2.5-10.6c.2-9.4.4-10.2,2.2-10.2s2-.8,2-14.5.1-14.5,2-14.5,2-.7,2-17c0-10.7.4-17,1-17s1-29.2,1-85.5-.3-85.5-1-85.5-1-6-1-16.1c0-15.2-.1-16.1-2-16.6s-2-1.4-2-14.5-.1-14-2-14.5c-1.7-.5-2-1.5-2.2-10.7-.3-9.6-.4-10.1-2.5-10.4s-2.3-.7-2.3-10.8c0-9.7-.1-10.4-2-10.4s-2-.7-2-8-.2-8-2-8-2-.7-2-8.5-.2-8.5-2-8.5-2-.7-2-6.1c0-5.2-.3-6.2-2-6.6s-2-1.4-2-8-.2-7.5-2-8c-1.6-.4-2-1.4-2-5.3,0-6.1-.7-8-3.1-8-1.7,0-1.9-.8-1.9-6s-.2-6-2-6-2-.7-2-6.1c0-5.2-.3-6.2-2-6.6s-2-1.4-2-4.4c0-3.2-.3-3.9-2-3.9s-2-.7-2-6.1c0-5.2-.3-6.2-2-6.6-1.5-.4-2-1.4-2-4s-.5-3.6-2-4-2-1.5-2.2-6.2c-.3-4.9-.6-5.6-2.5-5.9s-2.3-.9-2.3-4.8c0-3.7-.3-4.4-2-4.4s-2-.7-2-4-.3-4-2-4-2-.7-2-4-.3-4-2-4-2-.7-2-4.1c0-3.2-.4-4.2-2-4.6s-2-1.4-2-4-.5-3.6-2-4a2.64,2.64,0,0,1-2-2.8c0-3.6-1.1-5.5-3.1-5.5-1.6,0-1.9-.8-1.9-4.5s-.3-4.5-2-4.5-2-.7-2-4-.3-4-2-4-2-.7-2-4-.3-4-2-4-2-.7-2-4.1c0-3.2-.4-4.2-2-4.6s-2-1.4-2-4-.5-3.6-2-4a4.23,4.23,0,0,1-2.5-2.4,3.06,3.06,0,0,0-2.6-1.9c-1.6,0-1.9-.7-1.9-4.1,0-3.2-.4-4.2-2-4.6s-2-1.4-2-4.4c0-3.2-.3-3.9-2-3.9a1.8,1.8,0,0,1-2-2,1.8,1.8,0,0,0-2-2c-1.7,0-2-.7-2-4s-.3-4-2-4a1.77,1.77,0,0,1-2-1.9,2.9,2.9,0,0,0-1.9-2.6c-1.2-.4-2.1-1.9-2.5-4.5-.5-3.1-1.1-4-2.6-4a1.8,1.8,0,0,1-2-2,1.8,1.8,0,0,0-2-2c-1.7,0-2-.7-2-4s-.3-4-2-4c-1.4,0-2-.7-2-2.1a2.7,2.7,0,0,0-1.9-2.6,3.61,3.61,0,0,1-2.4-2.4,2.54,2.54,0,0,0-2.1-1.9c-1.2,0-1.6-1-1.6-3.5,0-2.9-.5-3.7-2.5-4.5-1.4-.5-2.5-1.6-2.5-2.5s-.9-1.5-2-1.5a1.8,1.8,0,0,1-2-2,1.8,1.8,0,0,0-2-2c-1.7,0-2-.7-2-4.1,0-3.2-.4-4.2-2-4.6a2.75,2.75,0,0,1-2-2.4,1.77,1.77,0,0,0-2-1.9,1.8,1.8,0,0,1-2-2,1.8,1.8,0,0,0-2-2c-1.1,0-2-.5-2-1s-1.1-1-2.5-1c-2.3,0-2.5-.3-2.5-5.1,0-4.2-.3-5.2-2-5.6a2.75,2.75,0,0,1-2-2.4,1.77,1.77,0,0,0-2-1.9,1.8,1.8,0,0,1-2-2,1.8,1.8,0,0,0-2-2,1.8,1.8,0,0,1-2-2,1.8,1.8,0,0,0-2-2,1.8,1.8,0,0,1-2-2,1.77,1.77,0,0,0-1.9-2,2.75,2.75,0,0,1-2.4-2,2.67,2.67,0,0,0-2.6-2c-1.8,0-2.1-.6-2.1-4.5s-.3-4.5-2-4.5a1.8,1.8,0,0,1-2-2,1.8,1.8,0,0,0-2-2,1.8,1.8,0,0,1-2-2,1.8,1.8,0,0,0-2-2,1.8,1.8,0,0,1-2-2,1.8,1.8,0,0,0-2-2,1.8,1.8,0,0,1-2-2,1.8,1.8,0,0,0-2-2,1.8,1.8,0,0,1-2-2c0-1.3-.9-2.2-2.5-2.6s-2.5-1.3-2.5-2.5a1.77,1.77,0,0,0-2-1.9,1.8,1.8,0,0,1-2-2,1.8,1.8,0,0,0-2-2,1.8,1.8,0,0,1-2-2,1.8,1.8,0,0,0-2-2,1.8,1.8,0,0,1-2-2,1.8,1.8,0,0,0-2-2,1.8,1.8,0,0,1-2-2,1.77,1.77,0,0,0-1.9-2,2.73,2.73,0,0,1-2.4-2.1,4.2,4.2,0,0,0-2.6-2.6,2.73,2.73,0,0,1-2.1-2.4,1.77,1.77,0,0,0-2-1.9,1.8,1.8,0,0,1-2-2c0-1.7-.7-2-4-2s-4-.3-4-2a1.8,1.8,0,0,0-2-2,1.8,1.8,0,0,1-2-2,1.77,1.77,0,0,0-1.9-2,2.75,2.75,0,0,1-2.4-2,2.67,2.67,0,0,0-2.6-2c-1.5,0-2.1-.6-2.1-2.1a2.67,2.67,0,0,0-2-2.6c-1.1-.3-2-1.2-2-2s-.9-1.7-2-2a2.75,2.75,0,0,1-2-2.4c0-1.5-.7-1.9-4-1.9-2.9,0-4-.4-4-1.5a1.79,1.79,0,0,0-1.9-1.5c-1.3,0-2.1-.8-2.3-2.3a2.77,2.77,0,0,0-2.5-2.5c-1.5-.2-2.3-1-2.3-2.3a1.74,1.74,0,0,0-1.9-1.9c-1.3,0-2.1-.8-2.3-2.3-.2-1.8-1-2.3-4-2.5-2.6-.2-3.8-.8-3.8-1.9,0-.8-.9-1.7-2-2s-2-1.2-2-2-.9-1.7-1.9-2a3.61,3.61,0,0,1-2.4-2.4c-.4-1.5-1.4-1.9-4.6-1.9-3.4,0-4.1-.3-4.1-2a1.8,1.8,0,0,0-2-2,1.8,1.8,0,0,1-2-2,1.77,1.77,0,0,0-1.9-2c-1.3,0-2.1-.8-2.3-2.3-.2-1.8-1-2.3-4-2.5-2.6-.2-3.9-.9-4.3-2.3a3.06,3.06,0,0,0-2.6-1.9,1.77,1.77,0,0,1-1.9-2c0-1.7-.7-2-4-2s-4-.3-4-2a1.8,1.8,0,0,0-2-2,1.8,1.8,0,0,1-2-2c0-1.7-.7-2-3.9-2s-4.1-.4-4.6-2-1.5-2-4.6-2c-3.3,0-3.9-.3-3.9-2.1a2.7,2.7,0,0,0-1.9-2.6,3.61,3.61,0,0,1-2.4-2.4c-.4-1.4-1.4-1.9-4-1.9s-3.6-.5-4-2c-.3-1.1-1.2-2-2-2a2.64,2.64,0,0,1-2.2-2c-.5-1.6-1.5-2-4.6-2s-3.9-.3-3.9-2-.7-2-4-2-4-.3-4-2-.7-2-3.8-2-4.1-.5-5-2.5-1.9-2.5-4.6-2.5c-2.5,0-3.5-.5-3.9-2s-1.4-2-4-2-3.6-.5-4-2-1.4-2-4.2-2-3.8-.5-4.2-2-1.4-2-4.4-2c-3.2,0-3.9-.3-3.9-2s-.7-2-4-2-4-.3-4-2-.7-2-4.4-2c-3.9,0-4.5-.3-4.8-2.3-.2-1.7-1-2.3-3.9-2.5-2.7-.2-3.8-.9-4.2-2.3s-1.4-1.9-4-1.9-3.6-.5-4-2c-.4-1.7-1.4-2-6.6-2-5.4,0-6.1-.2-6.1-2s-.7-2-4-2-4-.3-4-2-.7-2-6.5-2-6.5-.2-6.5-2-.7-2-3.9-2-4-.4-4.3-2.3-1-2.2-5.9-2.5c-4.7-.2-5.8-.6-6.2-2.2s-1.4-2-6.6-2c-5.4,0-6.1-.2-6.1-2s-.7-2-5.9-2c-5,0-5.9-.3-6.4-2s-1.4-2-8.6-2c-7.4,0-8.1-.2-8.1-2s-.7-2-6.5-2-6.5-.2-6.5-2-.7-2-8-2-8-.2-8-1.9c0-2.5-1.9-3.1-10-3.1-5.9,0-6.8-.2-7.3-2s-1.4-2-10.6-2c-9.4,0-10.1-.1-10.1-2s-.7-2-10.5-2S978,9.9,978,8s-.7-2-14.5-2S949,5.9,949,4s-.7-2-16.5-2C922.2,2,916,1.6,916,1s-29.3-1-86-1S744,.3,744,1Z"/><path d="M503,4c0,1.7-.7,2-4,2s-4.1.4-4.5,2.3c-.3,1.2-.5,15-.3,30.5.3,25.7.5,28.5,2.1,29.6s1.7,4,1.7,34.2c0,18.1.3,33.9.6,35.1.6,2.1,1.3,2.3,6.5,2.3s5.9-.2,5.9-1.9c0-1.3.8-2.1,2.3-2.3,2.2-.3,2.2-.5,2.5-16.9.2-15.7.4-16.7,2.2-17.2a2.53,2.53,0,0,0,2-2.1c0-1.3,1.1-1.6,5.6-1.6,4.7,0,5.7-.3,6.1-2s1.4-2,4.3-2,4-.5,4.5-2,1.5-2,5.1-2c3,0,5-.6,6.3-1.9,2.3-2.3,9.1-3.3,9.1-1.4,0,.7,1.1,1.9,2.5,2.5s2.5,1.7,2.5,2.4a3.68,3.68,0,0,0,2,2.4,3.61,3.61,0,0,1,2,2.5c0,.8.9,1.5,2,1.5a1.8,1.8,0,0,1,2,2,1.8,1.8,0,0,0,2,2,1.77,1.77,0,0,1,2,1.9c0,3.8,15.3,3.8,16.3,0a2.7,2.7,0,0,1,2.6-1.9c1.8,0,2.1-.6,2.1-3.9,0-3-.4-4-2-4.4-1.3-.3-2-1.4-2-3,0-2.5-2.3-5.7-4-5.7-.4,0-1-.9-1.3-2s-1.2-2-2-2-1.7-.9-2-2-1.2-2-2-2-1.7-.9-2-2a2.53,2.53,0,0,0-2.1-2c-.9,0-1.6-.8-1.6-2a1.8,1.8,0,0,0-2-2,1.77,1.77,0,0,1-2-1.9,2.89,2.89,0,0,0-2-2.6,2.64,2.64,0,0,1-2-2.2c0-.8-.9-1.7-2-2a4.23,4.23,0,0,1-2.5-2.4c-.4-1-1.2-1.9-2-1.9s-1.7-.9-2-2a2.89,2.89,0,0,0-2.6-2,1.77,1.77,0,0,1-1.9-2,1.8,1.8,0,0,0-2-2,1.8,1.8,0,0,1-2-2c0-1.1-.7-2-1.5-2s-2-1.1-2.5-2.5-1.6-2.5-2.4-2.5-1.6-.9-1.9-2a2.53,2.53,0,0,0-2.1-2,1.58,1.58,0,0,1-1.6-1.6,2.53,2.53,0,0,0-2-2.1,4.23,4.23,0,0,1-2.5-2.4,3.06,3.06,0,0,0-2.6-1.9c-1.5,0-1.9-.7-1.9-3.6,0-2.7-.5-3.7-1.9-4.1a3.61,3.61,0,0,1-2.4-2.4,2.54,2.54,0,0,0-2.1-1.9,1.56,1.56,0,0,1-1.6-1.5,3.72,3.72,0,0,0-1.9-2.5,5.45,5.45,0,0,1-2.6-3c-.3-1.1-1.2-2-2-2s-1.7-.9-2-2c-.5-1.7-1.5-2-6.6-2S503,2.2,503,4Zm16.5,37.8a3.61,3.61,0,0,0,2.7,2.2,1.79,1.79,0,0,1,1.8,2,1.8,1.8,0,0,0,2,2,1.8,1.8,0,0,1,2,2,1.8,1.8,0,0,0,2,2,1.8,1.8,0,0,1,2,2c0,1.2.7,2,1.6,2a2.53,2.53,0,0,1,2.1,2,2.75,2.75,0,0,0,2.4,2c1.3,0,1.9.7,1.9,2.1a2.67,2.67,0,0,0,2,2.6c4.1,1.1,1.7,4.3-3.2,4.3a2.65,2.65,0,0,0-2.5,2c-.4,1.6-1.4,2-4.4,2-3.2,0-3.9.4-3.9,1.9s-.9,2-6,2.3l-6,.3V58.2c0-15,.3-19.3,1.3-19A6.61,6.61,0,0,1,519.5,41.8Z"/><path d="M365.7,35.7c-.4.3-.7,3.9-.7,7.9,0,6.5-.3,7.6-2.5,9.9-3.3,3.2-9.5,3.6-9.5.5,0-1.8-.7-2-7.3-2-4.3,0-7.8.5-8.5,1.2s-1.2,3.9-1.2,7.1c0,5.5.3,6.3,3.5,9.3C342.9,73,343,73,352.4,73c8.9,0,9.4.1,8.9,2-.3,1.1-1.2,2-2,2s-1.7.9-2,2a4.23,4.23,0,0,1-2.4,2.5c-1.4.5-1.9,1.6-1.9,4.2s-.5,3.6-1.9,4c-2.6.7-3.1,4.6-3.1,26.8,0,21,.4,23.5,3.1,23.5,1.6,0,1.9.8,1.9,5.6s.3,5.7,2,6.1a2.64,2.64,0,0,1,2,2.3,2.64,2.64,0,0,0,2,2.3c1.4.3,2,1.4,2,3.1,0,2.6,5.8,9.6,7.9,9.6.5,0,1.1.9,1.4,2,.4,1.5,1.4,2,4.1,2,2.9,0,3.6.4,3.6,2a1.77,1.77,0,0,0,1.9,2,2.79,2.79,0,0,1,2.4,1.9c.3,1.4,1.8,2.1,5.8,2.6,3.2.4,6.1,1.5,7.2,2.6,1.6,1.7,3.4,1.9,15.7,1.9,14.6,0,17-.4,17-2.6,0-.9,1.1-1.4,2.9-1.4,2.9,0,6.1-2.2,6.1-4.1,0-.5,1.6-.9,3.6-.9,2.7,0,3.7-.5,4.1-2a2.75,2.75,0,0,1,2.4-2,1.77,1.77,0,0,0,1.9-2,1.8,1.8,0,0,1,2-2,1.77,1.77,0,0,0,2-1.9,2.75,2.75,0,0,1,2-2.4c1.5-.4,2-1.4,2-4.1,0-2,.4-3.6.9-3.6,2.8,0,4.1-3.4,4.1-10.3,0-10.3-.9-14.5-3.1-15.2a2.9,2.9,0,0,1-1.9-2.6,1.77,1.77,0,0,0-2-1.9c-1.7,0-2-.7-2-4s-.3-4-2-4-2-.7-2-3.5c0-2.3-.6-3.8-1.6-4.2a5.65,5.65,0,0,1-2.5-2.9c-.4-1.3-1.5-2.4-2.3-2.4s-1.6-.9-1.9-2c-.5-1.9-1.2-2.1-8.3-1.8l-7.8.3-.8,3.5a31.3,31.3,0,0,0-.2,8.2c.5,3.9,1,4.8,2.5,4.8s1.9.7,1.9,3.6c0,2.7.5,3.7,2,4.1a2.64,2.64,0,0,1,2,2.3,2.64,2.64,0,0,0,2,2.3c1.5.4,2,1.4,2,4s.5,3.7,2,4.2,2,1.5,2,4.6c0,2.7-.4,3.9-1.4,3.9-1.6,0-2.6,2.1-2.6,5.6,0,1.9-.5,2.4-2.4,2.4-3.5,0-5.6,1-5.6,2.6,0,.8-.8,1.4-1.9,1.4a2.75,2.75,0,0,0-2.4,2c-.5,1.9-1.4,2-12.5,2s-12-.1-12.5-2c-.4-1.5-1.4-2-4-2s-3.7-.5-4.2-2a2.89,2.89,0,0,0-2.6-2,1.77,1.77,0,0,1-1.9-2,1.8,1.8,0,0,0-2-2,1.8,1.8,0,0,1-2-2,1.8,1.8,0,0,0-2-2,1.77,1.77,0,0,1-2-1.9,2.75,2.75,0,0,0-2-2.4c-1.5-.4-2-1.4-2-4s-.5-3.7-2-4.2-2-1.5-2-4.2-.5-3.6-2-4c-1.8-.5-2-1.4-2-10.5s.2-10,2-10.5c1.6-.4,2-1.4,2-4.3s.4-3.9,2-4.3c1.1-.3,2-1.2,2-2s.9-1.7,2-2,2-1.2,2-2,.9-1.7,2-2,2-1.2,2-2,1.4-1.7,4-2.1,4-1.1,4-2.1c0-1.2,2-1.5,11.4-1.5,12.7,0,14.6-.4,14.6-3a2.64,2.64,0,0,1,2-2.3c1.7-.4,2-1.4,2-5.6,0-4.5-.3-5.3-2.5-6.3-1.4-.6-2.5-1.7-2.5-2.3s-1-1.5-2.2-1.9c-3.8-1-26.8-.7-28.9.4-1.8,1-1.9.6-1.9-12.5V35h-7.8C369.9,35,366,35.3,365.7,35.7Z"/><path d="M257.3,154c-.5,1.7-1.4,2-6,2s-5.6.3-6,2a2.77,2.77,0,0,1-2.5,2,2.77,2.77,0,0,0-2.5,2c-.3,1.1-1.2,2-2,2s-1.7.9-2,2a4.23,4.23,0,0,1-2.4,2.5,3.06,3.06,0,0,0-1.9,2.6,1.77,1.77,0,0,1-2,1.9,1.77,1.77,0,0,0-2,1.9,2.79,2.79,0,0,1-1.9,2.4c-1.6.4-2.1,1.7-2.7,6.6-.4,3.8-1.1,6.1-1.9,6.1-1.7,0-2.5,5.5-2.5,16.7,0,10,.5,12.3,2.6,12.3,1,0,1.4,1.4,1.4,4.9,0,4.7,1.7,8.1,4.1,8.1.5,0,.9,1.8.9,4,0,3.3.3,4,2,4s2,.7,2,3.6c0,2.7.5,3.7,2,4.1a2.75,2.75,0,0,1,2,2.4,1.77,1.77,0,0,0,2,1.9,1.8,1.8,0,0,1,2,2c0,1.1.6,2,1.4,2s2.1,1.1,3,2.5,2.3,2.5,3,2.5,1.6.9,1.9,2c.4,1.5,1.4,2,4.1,2,2.9,0,3.6.4,3.6,2s.7,2,3.9,2c3,0,4,.4,4.4,2,.5,1.9,1.4,2,22.7,2s22.2-.1,22.7-2c.4-1.5,1.4-2,4-2s3.6-.5,4-2a2.77,2.77,0,0,1,2.5-2,2.65,2.65,0,0,0,2.5-2,4.23,4.23,0,0,1,2.4-2.5,3.06,3.06,0,0,0,1.9-2.6,1.77,1.77,0,0,1,2-1.9c1.7,0,2-.7,2-4s.4-4,1.9-4c1.9,0,3.1-2.5,3.1-6.8,0-1.2.6-2.2,1.4-2.2,1.8,0,2.6-5.3,2.6-18,0-11.7-.6-15-2.6-15-.9,0-1.4-1.1-1.4-2.9,0-5.4-1.2-8.9-3.1-9.4-1.4-.4-1.9-1.4-1.9-4.2s-.5-3.8-2-4.2c-1.1-.3-2-1.2-2-1.9s-.9-1.4-2-1.4c-1.6,0-2-.7-2-3.3,0-3.7-.8-5.1-3.2-6a2.55,2.55,0,0,1-1.8-2.2c0-.8-.9-1.5-2-1.5a1.77,1.77,0,0,1-2-1.9c0-1.5-1-2.1-3.9-2.6-2.7-.4-4.1-1.3-4.4-2.6s-1.4-1.9-4-1.9-3.6-.5-4-2c-.4-1.7-1.4-2-6.6-2-5.4,0-6.1-.2-6.1-2s-.7-2-14.1-2C258.7,152,257.8,152.1,257.3,154ZM286,175c0,1.7.7,2,4,2,2.9,0,4,.4,4,1.5,0,.9,1.1,2.1,2.5,2.7s2.5,1.7,2.5,2.4.9,1.6,2,1.9a2.64,2.64,0,0,1,2,2.2c0,.8.9,1.7,1.9,2a3.61,3.61,0,0,1,2.4,2.4,2.54,2.54,0,0,0,2.1,1.9c.9,0,1.6.8,1.6,2a1.8,1.8,0,0,0,2,2c1.6,0,2,.7,2,3.7,0,5.3,1,8.3,2.6,8.3,1.1,0,1.4,2.2,1.4,10,0,8.7-.3,10.3-2,12a7.37,7.37,0,0,0-2,4.4,2.92,2.92,0,0,1-2,3.1,2.89,2.89,0,0,0-2,2.6,1.77,1.77,0,0,1-2,1.9,1.8,1.8,0,0,0-2,2,1.8,1.8,0,0,1-2,2,1.8,1.8,0,0,0-2,2c0,1.8-.7,2-5.5,2-4.4,0-5.6.4-6.5,2s-2.1,2-4.9,2c-3,0-4-.4-4.4-2s-1.4-2-6-2-5.5-.3-6-2a2.67,2.67,0,0,0-2.6-2c-1.4,0-2.1-.6-2.1-1.9s-1-2-3.9-2.5c-2.7-.4-4-1.2-4.4-2.6a2.53,2.53,0,0,0-2.1-2c-1.1,0-1.6-.9-1.6-2.9a5.91,5.91,0,0,0-1.8-4.3,8.18,8.18,0,0,1-2.5-3.1,2.59,2.59,0,0,0-2.2-1.7c-1.1,0-1.5-1-1.5-3.6s-.5-3.7-2-4.1c-1.9-.5-2-1.4-2-12.9,0-10.4.2-12.4,1.5-12.4.9,0,2-1.1,2.4-2.4a5.65,5.65,0,0,1,2.5-2.9c1-.4,1.6-1.8,1.6-3.6,0-2.7.4-3.1,3.6-3.7,2.4-.4,3.8-1.3,4.1-2.5A2.53,2.53,0,0,1,259,177a2.64,2.64,0,0,0,2.3-2c.5-1.9,1.4-2,12.6-2C285.3,173,286,173.1,286,175Z"/><path d="M150.8,264.7a2.21,2.21,0,0,0-1.8,1.9c0,.8-1,1.4-2.2,1.4-4.3,0-6.8,1.2-6.8,3.1,0,1.5-.7,1.9-4,1.9s-4,.3-4,2a1.8,1.8,0,0,1-2,2,1.8,1.8,0,0,0-2,2,1.8,1.8,0,0,1-2,2c-1.1,0-2,.5-2,1s-1.1,2-2.5,3.2-2.5,2.8-2.5,3.5a1.35,1.35,0,0,1-1.4,1.3,2.65,2.65,0,0,0-2.1,2c-.3,1.1-1.2,2-2,2-1.6,0-2.5,2.2-2.5,6.6,0,2.7-.4,3.4-2,3.4-1.1,0-2,.4-2,1s-.9,1-2,1a1.77,1.77,0,0,0-2,1.9,2.79,2.79,0,0,1-1.9,2.4c-2.5.6-3.7,6.4-2.5,12,.8,3.9,1.1,4.2,4.7,4.5,2.8.2,3.7.8,3.7,2.2a3.05,3.05,0,0,0,1.9,2.5,4.23,4.23,0,0,1,2.4,2.5,2.53,2.53,0,0,0,2.1,2,1.56,1.56,0,0,1,1.6,1.5c0,.9,1.1,2,2.5,2.5s2.5,1.6,2.5,2.5a1.72,1.72,0,0,0,1.9,1.5,2.75,2.75,0,0,1,2.4,2c.4,1.5,1.4,2,4.1,2,2.9,0,3.6.4,3.6,2a1.8,1.8,0,0,0,2,2,1.77,1.77,0,0,1,2,1.9,2.75,2.75,0,0,0,2,2.4c1.1.3,2,1.2,2,2s1.1,1.8,2.5,2.1,2.5,1.3,2.5,2.1,1.4,1.7,4,2.1c3,.5,4,1.1,4,2.5a1.77,1.77,0,0,0,2,1.9,1.8,1.8,0,0,1,2,2,1.8,1.8,0,0,0,2,2c1.1,0,2,.7,2,1.5s1.1,2,2.5,2.5,2.5,1.6,2.5,2.5.9,1.5,2,1.5a1.77,1.77,0,0,1,2,1.9c0,1.5,1,2.1,4,2.6s4,1.1,4,2.6a1.77,1.77,0,0,0,2,1.9c1.2,0,2,.7,2,1.6a2.54,2.54,0,0,0,1.9,2.1,3.61,3.61,0,0,1,2.4,2.4c.4,1.5,1.4,1.9,5.3,1.9s5.2-.5,8-3.3c2.2-2.1,3.4-4.2,3.4-6s.5-2.7,1.5-2.7,2-1.1,2.5-2.5,1.6-2.5,2.5-2.5,1.5-.9,1.5-2a1.77,1.77,0,0,1,1.9-2,3.06,3.06,0,0,0,2.6-1.9,4,4,0,0,1,2-2.5c.8-.3,1.7-2.1,2-4,.5-2.2,1.4-3.6,2.6-3.9,1-.3,1.9-1.2,1.9-2a2.64,2.64,0,0,1,2-2.2c1.6-.5,2-1.5,2-4.6s.3-3.9,2-3.9c1.9,0,2-.7,2-22.4s-.1-22.5-2-23.1c-1.5-.5-2-1.5-2-4.2s-.5-3.6-2-4a2.75,2.75,0,0,1-2-2.4,1.72,1.72,0,0,0-1.5-1.9c-.9,0-2-1.1-2.5-2.5s-1.6-2.5-2.5-2.5a1.54,1.54,0,0,1-1.5-1.5c0-.9-1.1-2-2.5-2.5s-2.5-1.6-2.5-2.5-.9-1.5-2-1.5a1.8,1.8,0,0,1-2-2,1.77,1.77,0,0,0-1.9-2,2.75,2.75,0,0,1-2.4-2c-.4-1.5-1.4-2-4-2s-3.7-.5-4.2-2-1.9-2.1-6.6-2.6c-3.7-.4-5.9-1.1-5.9-1.9s-1-1.5-2.2-1.9C177.2,263.9,153.4,264,150.8,264.7ZM178,287.5c0,.8,1.5,1.7,3.8,2.1,2,.4,4.3,1.5,5,2.6a5.74,5.74,0,0,0,4.3,1.8c2,0,2.9.5,2.9,1.6a2.53,2.53,0,0,0,2,2.1,4.23,4.23,0,0,1,2.5,2.4,3.06,3.06,0,0,0,2.6,1.9,1.74,1.74,0,0,1,1.9,1.9,2.89,2.89,0,0,0,2,2.6c1.5.5,2,1.5,2,4.2s.5,3.6,2,4,2,1.4,2,4.8c0,5.3.8,7.5,2.6,7.5,1,0,1.4,1.2,1.4,3.9,0,3-.4,4-2,4.4s-2,1.4-2,4.5-.4,4.1-2,4.5-2,1.4-2,4.1c0,2.9-.4,3.6-2,3.6a1.8,1.8,0,0,0-2,2,1.8,1.8,0,0,1-2,2c-1.1,0-2,.7-2,1.5a3.72,3.72,0,0,1-1.9,2.5,5.45,5.45,0,0,0-2.6,3,2.65,2.65,0,0,1-2.1,2c-.8,0-1.4.3-1.4.7-.1,3.2-5,3.9-5,.8,0-.8-.9-1.7-2-2a2.65,2.65,0,0,1-2-2.1c0-.8-1.5-1.6-4-2-3-.5-4-1.1-4-2.5a1.74,1.74,0,0,0-1.9-1.9,2.75,2.75,0,0,1-2.4-2c-.3-1.1-1.2-2-2-2a2.64,2.64,0,0,1-2.2-2,2.89,2.89,0,0,0-2.6-2,1.77,1.77,0,0,1-1.9-2,1.77,1.77,0,0,0-1.9-2,2.79,2.79,0,0,1-2.4-1.9c-.3-1.3-1.7-2.2-4.1-2.6-2.2-.5-3.6-1.3-3.6-2.2s-.9-1.7-2-2-2-1.2-2-1.9-1.1-1.9-2.5-2.4-2.5-1.6-2.5-2.5a1.72,1.72,0,0,0-1.9-1.5,2.75,2.75,0,0,1-2.4-2c-.4-1.5-1.4-2-4.1-2-2.9,0-3.6-.4-3.6-1.9a2.89,2.89,0,0,0-2-2.6,2.65,2.65,0,0,1-2-2.1c0-.8.9-1.4,2-1.4a1.77,1.77,0,0,0,2-1.9,2.75,2.75,0,0,1,2-2.4,2.67,2.67,0,0,0,2-2.6c0-1.4.6-2.1,2-2.1a1.8,1.8,0,0,0,2-2c0-1.2.7-2,1.6-2a2.53,2.53,0,0,0,2.1-2c.3-1.1,1.2-2,2-2s1.7-.9,2-2,1.1-2,1.9-2a4.14,4.14,0,0,0,2.6-1.8,8.18,8.18,0,0,1,3.1-2.5,2.59,2.59,0,0,0,1.7-2.2c0-1.3,1.9-1.5,12.5-1.5C175.8,286,178,286.3,178,287.5Z"/><path d="M612.3,468.7c-1,.4-1.3,69.3-1.3,339.9V1148H748.1c136.2,0,137.1,0,137.6-2,.5-1.8,1.4-2,10.9-2,9.7,0,10.4-.1,10.4-2s.7-2,8.1-2c7.1,0,8.1-.2,8.6-1.9s1.6-1.9,8-2.3c5.4-.2,7.8-.8,8.7-1.9.6-1,3.5-2,6.5-2.4,4-.5,5.5-1.2,5.8-2.6s1.4-1.9,4.3-1.9,4-.5,4.5-2,1.5-2,4.2-2,3.6-.5,4-2,1.4-2,4.4-2c3.2,0,3.9-.3,3.9-2s.7-2,3.5-2c2.4,0,3.7-.6,4.5-2,.6-1.1,2.6-2.2,4.6-2.6,2.4-.4,3.8-1.3,4.1-2.5a2.65,2.65,0,0,1,2.4-1.9,1.77,1.77,0,0,0,1.9-2c0-1.6.7-2,3.6-2,2.7,0,3.7-.5,4.1-2a2.75,2.75,0,0,1,2.3-2,2.88,2.88,0,0,0,2.5-2,2.64,2.64,0,0,1,2.2-2c.8,0,1.7-.9,2-2s1.2-2,2-2,1.7-.9,2-2,1.2-2,2-2,1.7-.9,2-2a4.23,4.23,0,0,1,2.4-2.5,3.06,3.06,0,0,0,1.9-2.6,1.74,1.74,0,0,1,1.9-1.9,2.89,2.89,0,0,0,2.6-2,2.64,2.64,0,0,1,2.2-2c.8,0,1.7-.9,2-2a2.75,2.75,0,0,1,2.4-2,1.77,1.77,0,0,0,1.9-2c0-1.2.7-2,1.6-2a2.53,2.53,0,0,0,2.1-2,4.23,4.23,0,0,1,2.4-2.5,3.06,3.06,0,0,0,1.9-2.6,1.77,1.77,0,0,1,2-1.9,1.77,1.77,0,0,0,2-1.9,2.65,2.65,0,0,1,1.9-2.4c1.2-.3,2.1-1.7,2.5-4.1.4-2,1.3-3.6,2-3.6s1.8-1.1,2.4-2.5,1.6-2.5,2.2-2.5,1.3-1.8,1.6-4c.5-3,1.1-4,2.5-4s1.9-.8,1.9-4,.3-4,2-4a1.77,1.77,0,0,0,2-1.9,2.89,2.89,0,0,1,2-2.6c1.6-.5,2-1.5,2-4.6s.3-3.9,2-3.9,2-.9,2.6-5.9c.5-4.6,1.1-6,2.5-6.4s1.9-1.4,1.9-4,.5-3.6,2-4c1.7-.4,2-1.4,2-6.6,0-5.4.2-6.1,2-6.1s2-.7,2-5.9c0-5,.3-5.9,2-6.4s2-1.4,2-6.6c0-5.4.2-6.1,2-6.1s2-.7,2-8.5c0-7.6.2-8.5,1.9-8.5,2.3,0,3.1-5,3.1-19.1,0-7.8.3-9.9,1.4-9.9a2.34,2.34,0,0,0,2-1.6c.3-.9.6-30.6.6-66.1,0-63.6,0-64.5-2-65s-2-1.4-2-13.8c0-15.6-.6-19.2-3.1-20-1.7-.6-1.9-1.7-1.9-10.6,0-9.2-.1-9.9-2-9.9s-2-.7-2-10.1c0-9.2-.2-10.1-2-10.6s-2-1.4-2-6.5-.3-6.1-2-6.5-2-1.4-2-6.3c0-6.7-.7-9-2.6-9-.9,0-1.4-1.2-1.4-3.4,0-4.4-.9-6.6-2.6-6.6-.9,0-1.4-1.1-1.4-2.9,0-5.7-1.2-9.1-3.1-9.1-1.6,0-1.9-.8-1.9-4.1s-.4-4.2-2-4.6-2-1.4-2-6-.3-5.6-2-6a2.64,2.64,0,0,1-2-2.8c0-3.3-1-5.5-2.5-5.5-.7,0-1.5-1.8-1.9-4s-1.1-4-1.6-4-1.5-1.1-2-2.5-1.6-2.5-2.4-2.5-1.7-1.5-2.1-4c-.5-3-1.1-4-2.6-4s-1.9-.7-1.9-3.6c0-2.7-.5-3.7-2-4.1a2.77,2.77,0,0,1-2-2.5,2.77,2.77,0,0,0-2-2.5,2.75,2.75,0,0,1-2-2.4,1.77,1.77,0,0,0-2-1.9c-1.6,0-2-.7-2-3.6,0-2.7-.5-3.7-2-4.1a4.23,4.23,0,0,1-2.5-2.4c-.4-1-1.2-1.9-1.9-1.9s-1.8-1.1-2.4-2.5-1.8-2.5-2.7-2.5-1.5-.9-1.5-2a1.8,1.8,0,0,0-2-2,1.8,1.8,0,0,1-2-2,1.8,1.8,0,0,0-2-2,1.8,1.8,0,0,1-2-2,1.8,1.8,0,0,0-2-2,1.8,1.8,0,0,1-2-2,1.8,1.8,0,0,0-2-2,1.77,1.77,0,0,1-2-1.9,3.06,3.06,0,0,0-1.9-2.6,4.2,4.2,0,0,1-2.6-2.6,3.06,3.06,0,0,0-2.6-1.9,1.77,1.77,0,0,1-1.9-2,1.77,1.77,0,0,0-1.9-2,2.75,2.75,0,0,1-2.4-2,2.53,2.53,0,0,0-2.1-2,1.56,1.56,0,0,1-1.6-1.5c0-.9-1.1-2-2.5-2.5s-2.5-1.6-2.5-2.5c0-1.1-1-1.5-3.6-1.5s-3.7-.5-4.1-2c-.3-1.1-1.1-2-1.9-2a3.68,3.68,0,0,1-2.4-2,7.85,7.85,0,0,0-4.4-2.6c-2.2-.4-3.6-1.3-3.9-2.5a2.67,2.67,0,0,0-2.5-1.9,2.77,2.77,0,0,1-2.5-2c-.4-1.5-1.4-2-4.1-2-2.9,0-3.6-.4-3.6-2s-.7-2-3.9-2c-3,0-4-.4-4.4-2s-1.4-2-4.2-2-3.8-.5-4.2-2-1.7-2.1-6.3-2.6-5.9-1.1-6.3-2.5-1.4-1.9-4.1-1.9c-2.4,0-3.6-.5-3.6-1.4,0-1.9-2.2-2.6-8-2.6-3.9,0-4.9-.4-5.3-2-.5-1.8-1.4-2-8-2s-7.5-.2-8-2-1.4-2-8.5-2-8-.2-8.5-2-1.4-2-14.6-2-14.1-.1-14.1-1.9c0-1.4-1-2-3.7-2.5C836.8,467.9,614.1,467.9,612.3,468.7Zm187,52.3c.5,1.9,1.4,2,23.1,2,21.9,0,22.6.1,22.6,2s.7,2,9.9,2c8.8,0,9.9.2,10.4,1.8.5,2.1,4.5,3.2,11.8,3.2,3.5,0,4.9.4,4.9,1.4,0,1.7,2.2,2.6,6.1,2.6,1.8,0,2.9.5,2.9,1.4,0,1.6,3,2.6,8.1,2.6,2.8,0,3.8.5,4.2,2s1.4,2,4,2,3.6.5,4,2,1.4,2,4.5,2,4.1.4,4.5,2,1.4,2,4.1,2c2.9,0,3.6.4,3.6,1.9s1,2,4,2.5c2.6.4,4,1.2,4,2.1s1.1,1.7,2.5,2.1,2.5,1.2,2.5,2,1.6,1.6,4,2c3,.5,4,1.1,4,2.5a1.74,1.74,0,0,0,1.9,1.9,2.75,2.75,0,0,1,2.4,2c.4,1.5,1.4,2,4.1,2,2.9,0,3.6.4,3.6,2a1.8,1.8,0,0,0,2,2c1.1,0,2,.5,2,1,0,1.4,6.6,8,8,8,.5,0,1,.7,1,1.6a2.53,2.53,0,0,0,2,2.1c1.1.3,2,1.2,2,2s.9,1.7,2,2,2,1.2,2,2,.9,1.7,2,2a2.75,2.75,0,0,1,2,2.4,1.77,1.77,0,0,0,2,1.9c1.1,0,2,.7,2,1.5a3.72,3.72,0,0,0,1.9,2.5,5.45,5.45,0,0,1,2.6,3,2.89,2.89,0,0,0,2.6,2c1.5,0,1.9.7,1.9,3.4s.5,3.6,2,4.1a2.89,2.89,0,0,1,2,2.6,1.77,1.77,0,0,0,2,1.9,1.8,1.8,0,0,1,2,2,1.8,1.8,0,0,0,2,2c1.6,0,2,.7,2,3.5,0,2.4.6,3.7,2,4.5,1.1.6,2.2,2.6,2.6,4.5a7.25,7.25,0,0,0,2.5,4.6,3.14,3.14,0,0,1,1.9,2.4c0,.8.9,1.5,2,1.5,1.7,0,2,.7,2,4s.3,4,2,4,2,.7,2,4.1c0,3.2.4,4.2,2,4.6s2,1.4,2,4,.5,3.6,2,4,2,1.4,2,4.3.4,3.9,2,4.3,2,1.4,2,4.4c0,5.1,1,8.3,2.5,8.3.8,0,1.5,2.2,1.9,6,.6,5.1,1,6,2.6,6,1.8,0,2,.7,2,6.1,0,5.2.3,6.2,2,6.6s2,1.4,2,8.3.2,7.8,2,8.3,2,1.4,2,8.6c0,7.4.2,8.1,2,8.1s2,.7,2,12.2c0,13.5.5,16.8,2.6,16.8,1.1,0,1.4,5.5,1.6,28.6.3,25.8.5,28.7,2.1,29.8,2.1,1.6,2.4,8.6.3,8.6s-2.6,3.4-2.6,27.2c0,18.7-.2,22.8-1.4,22.8-1.9,0-2.6,3.2-2.6,12.7,0,6.4-.3,8.3-1.4,8.3-2,0-2.6,2.3-2.6,9.5,0,5.5-.3,6.5-2,7s-2,1.5-2,6.5-.3,5.8-2,6.3-2,1.4-2,6-.3,5.5-2,6c-1.4.3-2.1,1.7-2.6,4.6-.4,2.5-1.2,4.1-2,4.1s-1.6,1.6-2,4c-.4,2.2-1.2,4-1.9,4-1.5,0-2.5,2.2-2.5,5.5a2.88,2.88,0,0,1-2,3c-1.6.5-2,1.5-2,4.6s-.3,3.9-2,3.9a1.77,1.77,0,0,0-2,1.9,2.75,2.75,0,0,1-2,2.4c-1.5.4-2,1.4-2,4.1,0,2.9-.4,3.6-2,3.6-1.4,0-2,.7-2,2.1a2.7,2.7,0,0,1-1.9,2.6c-1.2.3-2.1,1.7-2.5,3.8s-1.4,3.6-2.6,4a3,3,0,0,0-2,2.6,1.77,1.77,0,0,1-2,1.9,1.8,1.8,0,0,0-2,2,1.8,1.8,0,0,1-2,2,1.77,1.77,0,0,0-2,1.9,2.75,2.75,0,0,1-2,2.4,2.67,2.67,0,0,0-2,2.6c0,1.4-.6,2.1-2,2.1-1.1,0-2,.7-2,1.5a1.54,1.54,0,0,1-1.5,1.5c-.8,0-2.2,1.1-3.1,2.5s-2.3,2.5-3,2.5-1.4.9-1.4,2a1.8,1.8,0,0,1-2,2,1.8,1.8,0,0,0-2,2c0,1.6-.7,2-3.6,2-2.7,0-3.7.5-4.1,2a2.64,2.64,0,0,1-2.3,2,2.64,2.64,0,0,0-2.3,2c-.4,1.4-1.4,2-3.5,2a5.62,5.62,0,0,0-4.4,1.8,8.72,8.72,0,0,1-3,2.5,2.55,2.55,0,0,0-1.8,2.2c0,.9-.9,1.5-2.4,1.5-3.7,0-5.6,1-5.6,3.1,0,1.6-.7,1.9-4.1,1.9-3.2,0-4.2.4-4.6,2s-1.4,2-6,2-5.6.3-6,2-1.4,2-6,2-5.6.3-6,2-1.4,2-6.5,2-6.1.3-6.5,2-1.4,2-7.3,2c-7.7,0-10,.6-10,2.6,0,1.1-2.6,1.4-13.4,1.4-16.1,0-19.6.6-19.6,3.1,0,1.8-2.8,1.9-98,1.9H657V519h70.9C797.9,519,798.8,519,799.3,521Z"/><path d="M694.6,574.6c-.8,2.1-.8,466.2,0,470.3l.7,3.1h80.8c80.2,0,80.9,0,80.9-2s.7-2,14.1-2c13.2,0,14.1-.1,14.6-2s1.4-2,8.5-2,8-.2,8.5-2c.4-1.6,1.4-2,5.3-2,5.7,0,8-.7,8-2.5,0-.8,2.2-1.5,6-1.9,5.1-.6,6-1,6-2.6s.7-2,3.9-2c3,0,4-.4,4.4-2s1.4-2,3.6-2a4.74,4.74,0,0,0,4.3-2,4.38,4.38,0,0,1,3-2,1.79,1.79,0,0,0,1.8-2c0-1.6.7-2,3.6-2,2.7,0,3.7-.5,4.1-2,.3-1.1,1.1-2,1.9-2s2.1-1.1,3-2.5,2.3-2.5,3-2.5,1.4-.9,1.4-2a1.8,1.8,0,0,1,2-2,1.8,1.8,0,0,0,2-2,1.8,1.8,0,0,1,2-2,1.8,1.8,0,0,0,2-2,1.8,1.8,0,0,1,2-2,1.8,1.8,0,0,0,2-2,1.8,1.8,0,0,1,2-2c1.1,0,2-.5,2-1s1.1-2,2.5-3.2,2.5-2.7,2.5-3.4.9-1.4,2-1.7a2.53,2.53,0,0,0,2-2.1,1.48,1.48,0,0,1,1.4-1.6c1.6,0,2.6-2.1,2.6-5.5a2.64,2.64,0,0,1,2-2.8c1.5-.4,2-1.4,2-4s.5-3.6,2-4,2-1.4,2-4.6c0-3.4.3-4.1,2-4.1,1.5,0,2.1-.9,2.6-3.9.4-2.7,1.2-4.1,2.5-4.4,1.5-.4,1.9-1.4,1.9-4.5s.4-4.1,2-4.5,2-1.4,2-6,.3-5.5,2-6,2-1.4,2-8.6c0-7.4.2-8.1,2-8.1s2-.7,2-9.9.2-10,2-10.6c2-.6,2-1.5,2-54.6s0-53.9-2-53.9-2-.7-2-12.1c0-11.2-.1-12.1-2-12.6-1.7-.5-2-1.4-2-6.3s-.3-6-2-6.5-2-1.5-2-6.2-.3-5.6-2-6c-1.5-.4-2-1.4-2-4.2,0-5-1-8.1-2.5-8.1-.7,0-1.6-1.9-1.9-4.5-.6-3.6-1.1-4.5-2.7-4.5s-1.9-.7-1.9-4-.3-4-2-4-2-.7-2-3.9-.4-4.1-2-4.6-2-1.5-2-4.2-.5-3.6-1.9-4-2.1-1.7-2.5-4.4c-.4-2.3-1.2-3.9-2-3.9a2.53,2.53,0,0,1-2-1.5,2.26,2.26,0,0,0-1.8-1.5c-.8,0-1.9-1.4-2.5-3s-1.8-3-2.7-3c-1.2,0-1.6-1-1.6-3.6s-.5-3.7-2-4.1a2.75,2.75,0,0,1-2-2.4,1.77,1.77,0,0,0-2-1.9,1.8,1.8,0,0,1-2-2,1.8,1.8,0,0,0-2-2,1.8,1.8,0,0,1-2-2c0-1.1-.7-2-1.5-2s-2-1.1-2.5-2.5-1.6-2.5-2.4-2.5a2.65,2.65,0,0,1-2.1-2,2.89,2.89,0,0,0-2.6-2,1.77,1.77,0,0,1-1.9-2,1.8,1.8,0,0,0-2-2,1.8,1.8,0,0,1-2-2,1.8,1.8,0,0,0-2-2c-1.1,0-2-.7-2-1.5s-1.1-2-2.5-2.5-2.5-1.6-2.5-2.5-.9-1.5-2.5-1.5a7.76,7.76,0,0,1-4.9-2.5c-1.3-1.4-2.8-2.5-3.3-2.5s-1.3-.9-1.6-2c-.4-1.5-1.4-2-4.1-2-2.9,0-3.6-.4-3.6-2a1.77,1.77,0,0,0-1.9-2,2.89,2.89,0,0,1-2.6-2c-.5-1.6-1.5-2-4.6-2s-3.9-.3-3.9-2-.7-2-4-2-4-.4-4-1.9-1-2-4.5-2.5c-2.7-.5-4.5-1.2-4.5-2,0-1.4-4.2-2.6-9-2.6-1.9,0-2.9-.6-3.3-2-.4-1.7-1.4-2-6-2s-5.7-.3-6.2-2-1.5-2-8.5-2-7.8-.2-8.3-2-1.4-2-10.5-2-10-.2-10.5-2c-.5-2-1.4-2-66.5-2C702,573,695.2,573.2,694.6,574.6ZM791,625c0,1.9.7,2,16.4,2,15.1,0,16.4.1,16.8,1.8.6,2.1,6,3.2,14.9,3.2,3.8,0,5.1.4,5.9,2s2.1,2,6.4,2c4.5,0,5.4.3,5.9,2s1.4,2,4.5,2,4.1.4,4.5,2,1.4,2,6.1,2c4.9,0,5.6.2,5.6,2s.7,2,4,2,4,.3,4,2c0,1.5.7,2,2.5,2s2.5.5,2.5,1.9,1,2,4,2.5c2.6.4,4,1.1,4,2.1a2.59,2.59,0,0,0,1.7,2.2,14.34,14.34,0,0,1,3.5,2.5,6.93,6.93,0,0,0,4.3,1.8c1.6,0,2.5.6,2.5,1.6a2.54,2.54,0,0,0,1.9,2.1,3.61,3.61,0,0,1,2.4,2.4,2.7,2.7,0,0,0,2.6,1.9c1.4,0,2.1.6,2.1,2a1.8,1.8,0,0,0,2,2,1.8,1.8,0,0,1,2,2,1.8,1.8,0,0,0,2,2,1.77,1.77,0,0,1,2,1.9,3.06,3.06,0,0,0,1.9,2.6,4.23,4.23,0,0,1,2.4,2.5c.3,1.1,1.2,2,2,2s1.7.9,2,2,1.2,2,2,2,1.7.9,2,2a2.53,2.53,0,0,0,2.1,2c1.1,0,1.8,1.3,2.2,4,.5,3,1.1,4,2.5,4s1.9.7,1.9,2.1a2.67,2.67,0,0,0,2,2.6c1.5.4,2,1.4,2,4s.5,3.6,2,4a2.64,2.64,0,0,1,2,2.8c0,3.4,1,5.5,2.6,5.5.8,0,1.4,1,1.4,2.4,0,3.5,1,5.6,2.6,5.6.8,0,1.4,1,1.4,2.2,0,3.8,1.2,6.8,2.5,6.8.7,0,1.5,1.8,1.9,4,.5,3.1,1.1,4,2.6,4,1.8,0,2,.7,2,7.9s.2,8,2,8.6,2,1.5,2,8.5.2,7.8,2,8.3,2,1.4,2,20.7.1,20.2,2,20.7c1.6.4,2,1.4,2,4.3s-.4,3.9-2,4.3c-1.9.5-2,1.4-2,21.1,0,19.9-.1,20.6-2,20.6s-2,.7-2,8.5-.2,8.5-2,8.5-2,.7-2,6-.2,6-1.9,6-2.1.9-2.7,4.5c-.4,2.8-1.1,4.5-2,4.5s-1.6,1.6-2,3.9c-.4,2.7-1.2,4.1-2.5,4.4s-1.9,1.4-1.9,4-.5,3.6-2,4-2,1.4-2,4.1-.4,3.6-1.6,3.6a2.53,2.53,0,0,0-2.1,2,4.23,4.23,0,0,1-2.4,2.5,3.06,3.06,0,0,0-1.9,2.6,1.77,1.77,0,0,1-2,1.9,1.8,1.8,0,0,0-2,2,1.77,1.77,0,0,1-1.9,2,3.06,3.06,0,0,0-2.6,1.9,4.23,4.23,0,0,1-2.5,2.4,2.53,2.53,0,0,0-2,2.1,1.58,1.58,0,0,1-1.6,1.6,2.53,2.53,0,0,0-2.1,2c-.3,1.1-1.2,2-2,2s-1.7.9-2,2c-.4,1.4-1.7,2.2-4.4,2.6-2.9.5-3.9,1.1-3.9,2.5s-.8,1.9-3.9,1.9-4,.4-4.4,2-1.4,2-4.2,2-3.8.5-4.2,2-1.4,2-4,2-3.6.5-4,2c-.5,1.7-1.4,2-6.5,2s-6.1.3-6.5,2-1.4,2-8.7,2c-9.4,0-12.6.7-12.6,2.6,0,1.2-9.6,1.4-60,1.4H741V623h25C790.3,623,791,623.1,791,625Z"/></g></g></svg>